<svg xmlns="http://www.w3.org/2000/svg" viewBox="0 0 1037.14 253.09"><defs><style>.cls-1{fill:#1100d4;}.cls-2{fill:#0804ad;}.cls-3{fill:#1313ba;}.cls-4{fill:#0d08c1;}.cls-5,.cls-8{fill:#1a16ef;}.cls-6{fill:#0c0cc4;}.cls-7{fill:#0f0ae2;}.cls-8{opacity:0.63;}.cls-9{fill:#1c1ce5;}.cls-10{fill:#ffcb05;}.cls-11{fill:#ffd961;}.cls-12{fill:#ffd150;}.cls-13{fill:#f4bb06;}.cls-14,.cls-16,.cls-18{fill:#fff;}.cls-14,.cls-15,.cls-16,.cls-17,.cls-18,.cls-19{stroke:#000;stroke-miterlimit:10;}.cls-15,.cls-17,.cls-19{fill:none;}.cls-16,.cls-17{stroke-width:3px;}.cls-18,.cls-19{stroke-width:2px;}</style></defs><title>EMI-Logo</title><g id="COLOR_LETRAS" data-name="COLOR LETRAS"><path class="cls-1" d="M154.76,221.21l.81,83.22L155,330.22l-.71,24.25-1.73,39.31c-.12,5.28-1.25,6.13,6.59,4.92l25.72-.92,68.5-1,33.77.6,18.7.06,40.47,1.6c1.77,0,3.19-.89,3.13-2.66l-1.16-32.45c0-2.68.78-5.23-3.5-4.06l-14,.7-11.93,0-18-.06-71.2-.16a2.77,2.77,0,0,1-2.81-2.74l-.33-32.19,110.64-.36.91-1.62-1.42-9,.87-6.77,1.4-7.52V292c.31-2.6-1-5-3.58-4.47l-.24.05-4.38-.66-15.18-1-15.83.29-19.09,1-14.86.69-23,.12-17.56-1.82L228,273l-.28-5.4L226,261l117.42-1.71c3,0,2.43-.51,2.24-3.53l-.47-32.47c-.14-3.06-.69-4.39-3.75-4.24l-11.81.52-15.13.55-19.78.53-48.32,1.59H216.17L192,222.07Z" transform="translate(-151.7 -149.54)"/><path class="cls-1" d="M382.88,221.63l2,42.87v34.88l-2.25,51.19,0,12.77,0,13.92,0,14.67c1,5.29-.07,6.58,8.48,6.6l8.17.29,36.17,2.24c3.88.24,5.64-2.55,5.64-6.44l.32-26.49,1.27-102.26,9.56,28.18L467.43,341,486.5,399.5h51l46.29-133,.94,52.72-.21,27.13-.63,33-1.69,15.9a4.25,4.25,0,0,0,4.23,4.7l46.84-.59c6.6-.54,5.39-2.79,5.44-7l2-92.11,1.32-35.1.12-4.47-1.27-33.11c0-5.15-2-7.15-7.18-7.05l-84.89.72-2.72,11.42-14.5,46.56-9.64,28.69-6.3,13.81-3.3,4.26a1.69,1.69,0,0,1-3.17-.14l-16.86-49.91-16-56.16Z" transform="translate(-151.7 -149.54)"/><path class="cls-1" d="M692.94,221.27l17.53-1.84,11.76.29,31.11.45a5.55,5.55,0,0,1,5.6,5.55l-.17,145.41-.24,21.09c.16,4.36,0,6.31-6,6.36l-65.14,1.27-1.47-15L688.82,330,689,307.3l-.65-21.61-1.77-57.63C686.36,223.52,684.68,221.17,692.94,221.27Z" transform="translate(-151.7 -149.54)"/></g><g id="SOMBRAS"><path class="cls-2" d="M473.93,342.38a160.77,160.77,0,0,1,7.39,19.15,49.32,49.32,0,0,1,2.17,7.8c.26,1.53.37,3.08.66,4.6,1.73,9,9.64,16.66,8.32,25.68l-5.62.59A53.4,53.4,0,0,1,481.56,385a31.27,31.27,0,0,0-.95-4.29,30.75,30.75,0,0,0-2.18-4.47,52.59,52.59,0,0,1-5.71-17.55,21.89,21.89,0,0,0-.62-3.42,29.64,29.64,0,0,0-1.39-3.23,49.62,49.62,0,0,1-2.21-6.31l-4.44-14.63c-.82-2.7-3-7.08-1.85-9.85C466.61,327.66,470.42,335.37,473.93,342.38Z" transform="translate(-151.7 -149.54)"/><path class="cls-2" d="M386.43,338.89l.84,6.57,1.89,14.82.7,5.48c.37,2.91.74,5.81,1.18,8.7.26,1.72.54,3.43.72,5.15.19,1.91.27,3.82.34,5.74l.42,10.57a5,5,0,0,1-.27,2.28c-.57,1.27-1.5.43-2.89.27s-3.29.53-4.49-.19a3.48,3.48,0,0,1-1.34-1.15,3.4,3.4,0,0,1-.31-1.49c-.59-10.77-.13-20.39-.72-31.15a69.83,69.83,0,0,1-.05-8.68c.44-5.88,1.42-12.42.13-18.17a18.3,18.3,0,0,1-.13-2.68,34.47,34.47,0,0,1,.71-5c.23-1.84-.85-8.44,1.58-8.5.59,2.73.37,5.87.65,8.68S386.05,336,386.43,338.89Z" transform="translate(-151.7 -149.54)"/><path class="cls-2" d="M594.94,399.65l-2-12.65-1.78-11.08c-2.35-14.65-4.71-29.33-5.65-44.13l-2.55,63.68c-.12,1.9-.08,3.62,1.83,3.71l10.19.47" transform="translate(-151.7 -149.54)"/><path class="cls-3" d="M438.42,275a13.41,13.41,0,0,1-1.05-5.16,10.81,10.81,0,0,1,1.58-6.75,3.09,3.09,0,0,1,3-1.51c1.26.32,1.86,1.73,2.27,3q2.63,7.94,5.27,15.87c1,2.94,2,6,1.66,9.07a4.44,4.44,0,0,0,.5-2.36,1.87,1.87,0,0,0-1.51-1.68,3.69,3.69,0,0,1-.94-.07c-.54-.18-.75-.82-.88-1.37a75,75,0,0,0-6.05-16l.37,4.75c.32,4,1.27,9.34-.53,13.1C441.52,281.72,440.17,278.81,438.42,275Z" transform="translate(-151.7 -149.54)"/><path class="cls-2" d="M392.55,249.62c-.91,3.06-2.22,6-2.68,9.2-.22,1.46-.25,2.95-.54,4.4a13.07,13.07,0,0,1-5.61,8.34c2.43-5.76.91-12,.91-18.26,0-4.88-.45-9.44-.54-13.66-.09-4.51.68-8.78-.92-13.14a9.53,9.53,0,0,1,.37-4.81c.56-1.56,1.1-.5,2.75-.28,1.41.18,5.39-.29,6.5.56,1.95,1.49,1.41,6.19,1.5,8.33C394.57,236.78,394.41,243.36,392.55,249.62Z" transform="translate(-151.7 -149.54)"/><path class="cls-4" d="M469.34,293.45c2.25,12,9.3,22.48,16.18,32.57,4.68,6.85,9.47,13.83,16.05,18.89,1.05.81,2.15,1.57,3.25,2.33a10.44,10.44,0,0,1-11.49,2.89c-4.83-1.9-7.42-7-9.48-11.8-2.61-6-23.2-53.85-16.48-56.23C468.87,285.42,468.67,289.85,469.34,293.45Z" transform="translate(-151.7 -149.54)"/><path class="cls-4" d="M397.65,308.66a191.67,191.67,0,0,0,19.51,37.64,31.55,31.55,0,0,0,3.6,4.69,17.77,17.77,0,0,0,7.91,4.72c-2.93,1.2-6.43,2.35-9.09.62-1.93-1.25-2.72-3.63-3.8-5.67-2-3.8-5.34-6.71-7.84-10.21-5.65-7.89-6.69-18.07-7.56-27.74" transform="translate(-151.7 -149.54)"/><path class="cls-5" d="M417.12,389.05a19.89,19.89,0,0,0,3.38,3.42c2.79,2,6.43,2.55,9.89,2.53a7.83,7.83,0,0,1,2.74.29,2.34,2.34,0,0,1,1.62,2,18.56,18.56,0,0,1-13.54,1,38.56,38.56,0,0,1-4.5-1.89c-1.79-.85-3.65-1.76-4.78-3.37s-2.46-6.87-1.13-8.76C412.59,381.71,415.76,387.45,417.12,389.05Z" transform="translate(-151.7 -149.54)"/><path class="cls-2" d="M159.17,349.34c-.19,2.08-.58,4.14-.63,6.22a32,32,0,0,0,.66,6.31,104.42,104.42,0,0,0,7,22.93c1.6,3.67,3.6,7.45,7.1,9.4,2.34,1.31,5.59,2.11,6.12,4.74l-27.27-1.27a30.78,30.78,0,0,1-.11-8.3c.31-1.83,1-3.6,1.32-5.42a37.3,37.3,0,0,0,.59-6.42l1.21-33.16c.05-1.34-.46-11.79,2.45-10.65C159.82,334.59,159.36,347.3,159.17,349.34Z" transform="translate(-151.7 -149.54)"/><path class="cls-4" d="M337.71,375.47c.33,1.53,2.32,2.41,2.35,4a2.88,2.88,0,0,1-.26,1.15A15.27,15.27,0,0,1,333,388a41.77,41.77,0,0,1-9.49,3.71,16.44,16.44,0,0,0,2.43,1.07c3.55,1.22,7.39,1.15,11.13,1.06a6.08,6.08,0,0,0,4-1c1.31-1.16,1.35-3.15,1.29-4.89l-.3-9.62" transform="translate(-151.7 -149.54)"/><path class="cls-4" d="M165.57,240.74a4.38,4.38,0,0,1,1.34,3.62l0,9.59a1.2,1.2,0,0,1-1.41-.67,3.49,3.49,0,0,1-.28-1.67v-6c0-1.73-.08-3.65-1.31-4.86-.54-.52-1.24-.85-1.79-1.36-.87-.81-2.54-5.93-.43-5.34C162.15,234.19,164.87,239.88,165.57,240.74Z" transform="translate(-151.7 -149.54)"/><path class="cls-4" d="M265.35,300.79c3,1.42,5.24,5,4,8.12-4.11,1-21.52-.64-23.25-5.51C244.65,299.25,262.15,299.28,265.35,300.79Z" transform="translate(-151.7 -149.54)"/><path class="cls-6" d="M168.34,245.83a29.86,29.86,0,0,0-2.77,8.27,16.19,16.19,0,0,1-.58,3.62c-.64,1.75-2.16,3-2.87,4.77-.6,1.46-.58,3.1-1,4.62a7.9,7.9,0,0,1-4.45,5c-1.13-8.46-2.26-17.06-.86-25.47a11.31,11.31,0,0,0,.24-3.88,20.29,20.29,0,0,0-1-2.81c-1.82-5.28,1.12-11.34-.78-16.59.2.54,19.73-4,22.44.27C179.28,227.69,170.16,241.76,168.34,245.83Z" transform="translate(-151.7 -149.54)"/><path class="cls-2" d="M697,371.29c1,3.31,2.09,6.6,3.18,9.88,1.23,3.7,2.59,7.6,5.54,10.15,4.19,3.63,10.32,3.56,15.85,3.3.1,2,4.17,2.28,4.27,4.24a65.92,65.92,0,0,1-15.07.38c-5.54-.4-14,1.14-19.58.73a5.11,5.11,0,0,1-3-.86,4.51,4.51,0,0,1-1.14-1.75c-2.23-5.28-1.9-11.25-1.53-17,.42-6.5-1.89-28.18,5.87-30C694.17,356.58,694.94,364.58,697,371.29Z" transform="translate(-151.7 -149.54)"/><path class="cls-2" d="M707.13,361.19c2,2.11,2.7,5.08,3.79,7.76s3,5.46,5.8,6a1.82,1.82,0,0,0,1.11-.07c1.16-.56.55-2.31-.22-3.35l-5.1-6.95c-1.19-1.64-3-3.48-4.89-2.86" transform="translate(-151.7 -149.54)"/></g><g id="LUCES"><path class="cls-5" d="M462.05,246.18c5,13.67,27.5,27.86,34,40.85-1-4.44-4.56-13.2-5.77-17.61-4.35-15.82-10.53-27-12.61-43a26.94,26.94,0,0,0-1.4-5.07c-1.4-2.09-1.5-1.62-4-1.3-3.68.48-25.21-.44-27.76.08-2.34.47,8.56,8.84,10.18,11.47A77.42,77.42,0,0,1,462.05,246.18Z" transform="translate(-151.7 -149.54)"/><path class="cls-5" d="M623.47,247.34c5,13.67,11.5,26.7,18,39.69-1-4.44.08-9.06.82-13.57,2.61-15.86.53-32.08-1.55-48a4.86,4.86,0,0,0-.61-2.12c-1.4-2.08-3.95-2.38-6.44-2.06-3.68.48-24.89-1.51-27.45-1-2.33.47,9.06,8.92,10.68,11.55C619.9,236.59,621.56,242.09,623.47,247.34Z" transform="translate(-151.7 -149.54)"/><path class="cls-7" d="M529.62,331.28a93.92,93.92,0,0,0,2.39-9.41,165.63,165.63,0,0,1,6.14-20.59c5.68-15.28,13.59-29.62,21.48-43.89a11.24,11.24,0,0,1,2.37-3.28c2.3-2,5.68-1.78,8.69-1.49a6.8,6.8,0,0,1,3.06.81c2.23,1.46,1.92,4.76,1.35,7.36q-1.9,8.68-3.82,17.37c-1.3,5.91-2.61,11.86-5,17.43A92.56,92.56,0,0,1,561,305.65q-10.87,18.68-22.61,36.82a5.92,5.92,0,0,1-1.59,1.85c-1.84,1.23-8.47,1.31-9.54-.65C525.58,340.6,528.67,334.11,529.62,331.28Z" transform="translate(-151.7 -149.54)"/><path class="cls-7" d="M609.21,255.54c4.83,4.54,8.94,10,11,16.31a49.28,49.28,0,0,1,1.79,8.54c1.69,12.14,1.8,24.68-1.48,36.49-.6,2.12-1.52,4.47-3.58,5.27a5.78,5.78,0,0,1-5-.88c-5.71-3.58-7.18-11.11-8.12-17.78-1.58-11.28-3.17-22.61-3.09-34a40.08,40.08,0,0,0-.49-8.9,33.56,33.56,0,0,0-1.7-5c-.86-2.14-5.66-10.58-1.11-9.21C601.36,247.54,606.24,252.74,609.21,255.54Z" transform="translate(-151.7 -149.54)"/><path class="cls-5" d="M427.42,234.3a15.52,15.52,0,0,1,4.86.47,14.33,14.33,0,0,1,2.9,1.33c7.45,4.25,13.39,12.06,13.23,20.64a40.8,40.8,0,0,1-6.53-7.53c-.88-1.31-1.84-2.79-3.37-3.16-2-.48-3.76,1-5.6,1.84A8.62,8.62,0,0,1,422.15,244c-.58-1.15-1-2.57-2.27-3a13.11,13.11,0,0,1-1.41-.32,2.94,2.94,0,0,1-1.09-1.07c-2.28-3.25-2.14-3.78,1.77-4.51A51.1,51.1,0,0,1,427.42,234.3Z" transform="translate(-151.7 -149.54)"/><path class="cls-5" d="M190.38,304.07a125.36,125.36,0,0,0,4.82,12c1.15,2.38,2.46,4.74,2.93,7.35.43,2.41.12,4.88.26,7.32a39.19,39.19,0,0,0,1.83,8.66,41.12,41.12,0,0,0,.6-22.8c-.75-2.85-1.81-5.65-2.1-8.58a42.23,42.23,0,0,0-.42-4.91c-.47-2.14-1.68-4-2.56-6-2.14-4.91-2.28-10.33-2.65-15.58-.22-2.93-.9-7.66-5.18-5.46-3.72,1.9-2.5,9.1-2,12.4C186.68,293.84,188.54,299,190.38,304.07Z" transform="translate(-151.7 -149.54)"/><path class="cls-5" d="M313.05,227.89c1.37,2.81.57,6.27-1.1,8.91-3.46,5.49-9.92,8.18-16.06,10.28-8.71,3-18.12,5.4-27,3.07-3.63-1-7-2.67-10.73-3.38-2.12-.41-4.32-.48-6.4-1.08a7.22,7.22,0,0,1-4.91-3.89c-2.12-5.4,3.73-5.4,6.94-4.91A100.91,100.91,0,0,0,268.29,238a102.2,102.2,0,0,0,29.08-4.08A99,99,0,0,0,313.05,227.89Z" transform="translate(-151.7 -149.54)"/><path class="cls-5" d="M337.9,227.09a78.63,78.63,0,0,1,7.69,13.5,112.84,112.84,0,0,1-.67-17.34c.07-1.86-.16-4.25-1.94-4.79a4.67,4.67,0,0,0-2.1.07c-3.16.54-12.72-1.09-14.26,2.16C331.81,221.8,334.66,222.5,337.9,227.09Z" transform="translate(-151.7 -149.54)"/><path class="cls-8" d="M316.71,290.44a35.17,35.17,0,0,1,8.44,8.51,130.33,130.33,0,0,1,10.54,16.17,24.15,24.15,0,0,0-1.47-11.9,23.3,23.3,0,0,1-1.65-4.66c-.25-1.4-.12-2.88-.65-4.2a7.24,7.24,0,0,0-2.79-3.07c-3.7-2.55-8.16-3.7-12.52-4.81-3.27-.83-8.12-2.08-10.89.6C309.63,287.73,313.25,288.19,316.71,290.44Z" transform="translate(-151.7 -149.54)"/><path class="cls-5" d="M321.83,365.1a16,16,0,0,1,3.39.31c2.75.66,4.92,2.7,6.95,4.66l2.51,2.43a15.36,15.36,0,0,1,2.53,2.87,2.35,2.35,0,0,0,1,1.12,13.44,13.44,0,0,0-3.29-9.7,6.89,6.89,0,0,0-3.79-2.42,23.33,23.33,0,0,0-3-.09,16.62,16.62,0,0,1-5.18-1.49c-1.75-.71-6.77-2.75-7.64.11C314.35,366.12,320.11,365.07,321.83,365.1Z" transform="translate(-151.7 -149.54)"/><path class="cls-5" d="M260.53,367.31a8.21,8.21,0,0,1,3.74-.55,13.67,13.67,0,0,1,2.83,1.18c3.18,1.41,6.85.87,10.3,1.35s7.27,2.83,7.1,6.3-4,5.38-7.39,6.11c-12.05,2.63-24.5-.78-36.36-4.16a2.51,2.51,0,0,1-2.35-2.47c-1.19-6.42,2.07-5.27,6.83-5.37A57.19,57.19,0,0,0,260.53,367.31Z" transform="translate(-151.7 -149.54)"/><path class="cls-5" d="M196.77,362.89A17.74,17.74,0,0,0,203.5,365q9.57,1.55,19.26,2.25c.81,2.29-1.72,4.35-4,5.15a25.72,25.72,0,0,1-16.44-.29c-5.08-1.68-16.51-6.45-16.05-12.82.17-2.21,1.16-5.64,3.72-4.25S193.88,361.08,196.77,362.89Z" transform="translate(-151.7 -149.54)"/><path class="cls-5" d="M746.08,238.56c.2,6.08,1.52,12.06,2.83,18,2.45,11.11,4.9,22.22,8.06,33.15l2.5.09c-1.67-17.81-1-33.3-.7-51.18.09-5.13-1.53-12.43-.64-17.41-6.36-.21-15.54-2.43-21.44.22C743.29,226,745.81,230.5,746.08,238.56Z" transform="translate(-151.7 -149.54)"/><path class="cls-7" d="M719.21,281.66a17.7,17.7,0,0,1,3.54-6.54,7.39,7.39,0,0,1,6.75-2.41c3.38.77,5.25,4.37,6.3,7.69,3.86,12.25,2.55,25.45,1.21,38.22a35,35,0,0,1-2.06,10c-1.49,3.52-4.14,6.61-4.71,10.38,1.93-12.87-.17-30.51-4.19-42.8C713.81,301.38,716.09,290.65,719.21,281.66Z" transform="translate(-151.7 -149.54)"/><path class="cls-9" d="M199.63,235.88c4.63-2.72,10.22-3.25,15.59-3.08,6.35.2,13.38,1.74,16.94,7-3.85-5.68-25,2.37-29.17,4.74-2.94,1.66-7.48,7.41-10.14,4C189.79,244.55,196.8,237.54,199.63,235.88Z" transform="translate(-151.7 -149.54)"/></g><g id="COLORES_CASTILLO" data-name="COLORES CASTILLO"><polygon class="cls-10" points="634.28 247.74 635.5 229.12 641.75 228.67 644.03 212.75 652.93 210.78 653.18 40.22 645.96 28.11 646.29 1.5 660.01 1.5 660.33 12.48 669.77 12.73 671.05 1.5 684.77 1.5 684.07 12.99 694.03 12.99 692.94 1.5 708.94 1.5 708.94 12.99 717.52 12.99 716.81 1.5 732.33 1.5 732.9 27.58 725.69 38.78 725.69 103.63 740.3 103.63 740.3 117.86 749.78 117.86 750.52 103.63 765.33 103.63 765.33 118.44 775.54 118.12 777.21 102.61 790.6 103.63 790.6 85.75 775.54 66.86 775.54 41.33 792.13 41.65 792.45 52.56 808.47 52.56 808.87 40.17 825.07 41.33 825.07 52.63 842.69 52.31 843.14 40.62 859.54 41.33 859.54 52.56 875.88 52.82 876.07 40.83 891.96 41.33 891.96 66.35 875.88 86.27 875.88 103.31 892.6 102.98 892.73 118.44 902.18 118.44 902.94 103.63 917.95 103.01 917.75 118.12 928.98 117.99 928.73 103.63 942.27 102.01 943.03 39.8 936.13 27.67 936.13 1.5 950.69 1.5 950.18 11.84 959.62 12.73 960.9 1.5 973.92 1.5 973.92 12.99 983.88 12.99 982.73 1.5 998.18 1.5 998.18 12.99 1007.37 12.35 1007.37 1.5 1022.18 1.5 1022.18 28.05 1016.43 39.22 1015.54 212.13 1025.88 212.59 1027.15 230.05 1035.79 230.56 1033.89 247.39 634.28 247.74"/></g><g id="Luces_castillo" data-name="Luces castillo"><path class="cls-11" d="M1125.57,162.92a25.27,25.27,0,0,1,8,9.38c4.82,9.78,2.87,21.48,5.49,32.07,2.19,8.9,7.51,16.65,12.73,24.18l11.4,16.46a27.7,27.7,0,0,1,3.72,6.59l.35-63.28,6.64-12.51V152.32L1159.06,151v11.49h-9.19l-1.47-10.47-12.83-1v10.22l-10,1.27" transform="translate(-151.7 -149.54)"/><path class="cls-11" d="M1143.62,240.08c2,5.16.63,11.11,2.21,16.43,2.13,7.18,9.07,11.63,15.43,15.59a15.44,15.44,0,0,1,3,2.22,7.59,7.59,0,0,1-2.58,12.27,1.29,1.29,0,0,1-.86.13,1.53,1.53,0,0,1-.66-.5c-2.57-2.67-6.56-3.28-9.83-5-5.85-3.12-9-9.61-11.2-15.87-1.92-5.44-3.11-11-4.49-16.57a13.15,13.15,0,0,0-2.67-5.82c-1-1.09-2.45-1.83-3.12-3.17a7.82,7.82,0,0,1,.21-6c1.1-2.18,2.61-2.08,5-1.57A13.35,13.35,0,0,1,1143.62,240.08Z" transform="translate(-151.7 -149.54)"/><path class="cls-11" d="M1143.8,350.19a5.69,5.69,0,0,1,2.89.62,5.62,5.62,0,0,1,1.75,2.24l7.6,14c1,1.81,2.1,3.75,4,4.55,1.63.69,4,.74,4.45,2.45a8.28,8.28,0,0,1,.11,1.5c.23,2.27,2.71,3.48,4.74,4.53a27.49,27.49,0,0,1,12.11,12.59l-6.23,2.5a3.66,3.66,0,0,1-1.67.37,4,4,0,0,1-1.91-1.06c-4.66-3.67-11.12-4.72-15.29-8.93-2.57-2.6-4-6.11-5.63-9.37s-3.89-6.52-7.29-7.88c-3.59-1.43-7.82-.46-11.36-2-.63-.28-1.44-11.72-.62-13.15C1133.56,349.4,1140.3,350.05,1143.8,350.19Z" transform="translate(-151.7 -149.54)"/><path class="cls-11" d="M1093,282.15a2.69,2.69,0,0,1,.76.47,2.79,2.79,0,0,1,.63,1.29,56.43,56.43,0,0,0,4.68,10.26l8.26,15.33a28.56,28.56,0,0,0,3.23,5.08,14.21,14.21,0,0,0,4.25,3.37,11.13,11.13,0,0,1,3.48,2.13c1.62,1.81,1.23,4.78-.21,6.74s-3.67,3.15-5.83,4.27a2.29,2.29,0,0,1-1.25.38,2.66,2.66,0,0,1-1.42-.83c-2.38-2.05-5.58-2.84-8.27-4.46-7-4.2-9.42-13.23-9.55-21.38,0-3.49.07-7.35-2.2-10s-5.43-3.8-7.68-6.38c-1.8-2.07-5.36-4.31-5.32-7.32C1076.64,273.75,1089.82,280.67,1093,282.15Z" transform="translate(-151.7 -149.54)"/><path class="cls-12" d="M1001,251.39c1.83,2.27,3.68,4.62,4.56,7.4,1.22,3.9.38,8.22,1.59,12.12s4.1,6.68,5.92,10.17c1.94,3.7,2.58,7.92,3.39,12,3.25,16.41,9.66,32,16.84,47.16,6.53,13.75,13.73,27.17,21.26,40.41q4.76,8.37,9.7,16.63a86.29,86.29,0,0,0,2.48-34.84c-2-14.85-7.82-28.88-13.58-42.7l-6.72-16.11c-4.44-10.65-8.88-21.3-13.92-31.67-2.91-6-6.06-12-7.28-18.53a42.51,42.51,0,0,1,0-14.54c.68-4.29,1.91-8.65,4.74-11.94,1.22-1.42,2.69-2.59,4-3.91,7.3-7.31,9.1-18.71,7.4-28.9a8.65,8.65,0,0,0-15.24,6.2c.09,1.29.41,2.78-.5,3.7a3.7,3.7,0,0,1-2.62.71c-3,0-6.16,0-8.94-1.17s-5.11-4-4.79-7c.12-1.21.63-2.53,0-3.56s-1.88-1.13-3-1.22l-7.61-.61c-1.24-.1-2.8,0-3.29,1.12a3.85,3.85,0,0,0-.09,1.82c.24,3.93-3.27,7.29-7.07,8.27s-7.82.19-11.67-.62a8.7,8.7,0,0,0-8.53-9.26c-4.11.12-8,4.16-8.63,8.16-.68,4.5,3.78,7.92,6.54,10.81q11.73,12.3,22.8,25.2Q995,244,1001,251.39Z" transform="translate(-151.7 -149.54)"/><path class="cls-11" d="M822.19,163.78c8.38,4.21,16.92,8.55,23.46,15.27,3.61,3.72,6.52,8.07,10.17,11.74A66.35,66.35,0,0,1,861,196a36.36,36.36,0,0,1,3.15,5L876.76,224l.63-29.53,1.33-8.28,5.3-8.56V151h-14.8v11.49H860V151H845.73v11.49h-10L834.08,151H822.75l-1.28,11.24" transform="translate(-151.7 -149.54)"/><path class="cls-11" d="M811.87,238.6C823,249,829.08,264.07,840.78,273.82c5.66,4.72,12.48,8,17.62,13.32a31.93,31.93,0,0,0,4,3.89c3.86,2.77,9,2.62,13.74,2.35-1.09-3.76,1.64-7.63,1.38-11.54a13.32,13.32,0,0,0-1.48-4.77,54.94,54.94,0,0,0-9.48-14c-8-8.64-18.55-14.46-29.06-19.8-4.4-2.24-8.87-4.44-12.79-7.46-2.84-2.18-5.38-4.79-8.5-6.54s-7.12-2.52-10.26-.79c-1.13.62.09,6,.71,6.74C807.78,236.5,810.44,237.27,811.87,238.6Z" transform="translate(-151.7 -149.54)"/><path class="cls-12" d="M1066.25,296.9a65.93,65.93,0,0,1,3.87,12.26c.36,1.41,1.42,3.2,2.76,2.64,1.23-2.65,2-5.66,1.27-8.49a17,17,0,0,0-2.44-4.81l-6.78-10.42c-2.24-3.44-7.77-11.85-12.89-10.39.9,3.05,5.2,6.5,7.32,9.07A49.81,49.81,0,0,1,1066.25,296.9Z" transform="translate(-151.7 -149.54)"/><path class="cls-12" d="M948.36,272a33.82,33.82,0,0,0,4.89,8.12c7.73,10.37,16.06,20.45,26.27,28.39a23.16,23.16,0,0,0-.65-22.12c-3.47-5.82-9.31-9.75-15-13.5-4.34-2.88-8.61-5.93-13-8.65C945.27,260.83,948.36,269.24,948.36,272Z" transform="translate(-151.7 -149.54)"/></g><g id="Sombras_castillo" data-name="Sombras castillo"><path class="cls-13" d="M804.85,283.16a222,222,0,0,0,15.71,29.58,81.82,81.82,0,0,0,7.62,10.49c4,4.55,8.83,8.31,13.62,12,8.49,6.63,17,13.29,26.61,18.24,6.44,3.34,13.27,5.86,19.73,9.15,12.3,6.27,23.1,15.27,35.64,21.07a78.66,78.66,0,0,0,17.44,5.72c2.3.46,4.73.88,6.54,2.38s2.59,4.51.94,6.18L788.34,398l-2.72-4.17,1.52-14.4h6L794.63,364l4.26-3.31h4.94l1-77.54" transform="translate(-151.7 -149.54)"/><path class="cls-13" d="M1074.18,385.36a32.8,32.8,0,0,1,3.78,2.48,9.75,9.75,0,0,1,2.12,11.83c.11-.2-18.15-2.72-19.84-2.85,1.26-7.06-13-7.64-6.55-17.1C1058.86,372.18,1068.64,381.79,1074.18,385.36Z" transform="translate(-151.7 -149.54)"/><path class="cls-13" d="M1010.89,355.14c2,1.55,4.21,4.1,3,6.32-7.93-.51-16,.36-23.94-.14-6.22-.4-26-.71-32.18.1-1.9.25,1-8.16-.22-16.72-.81-5.45-1.94-28,1.26-28.86,5.66-1.6,14.87,17.78,20.41,21.48C989.27,344.06,1001,347.54,1010.89,355.14Z" transform="translate(-151.7 -149.54)"/></g><g id="CAST_INT" data-name="CAST INT"><path class="cls-1" d="M811,211.44c-.08,10.71,1.24,23.44-.22,29.73a38.32,38.32,0,0,0,6.86.92c1.78.09,2.9.41,3.46-.49a4.49,4.49,0,0,0,.32-2.45l-.31-16a46.3,46.3,0,0,1,.25-7.26c.32-2.22,1.39-4.48.87-6.67-.65-2.76.13-7.24.4-8.65.85-4.43-1.1-5.51-9.88-4.4-.35.05-1.09.27-1.11.64C811.46,199.49,811,207.86,811,211.44Z" transform="translate(-151.7 -149.54)"/><path class="cls-7" d="M846.77,241.48l-.49-18.73a73,73,0,0,1,.29-11.26,28,28,0,0,0-.33-10.08c-.5-2.11.63-6.17-.8-6.63-1-.33-5.65-.67-7.6.28-.51.25-1.74.37-2.07.83-.65.88-.44,2.84-.44,3.93v28.09c0,2.31.1,4.63,0,6.94,0,.71.54,5.84.53,6.89C835.83,243.18,844.26,241.85,846.77,241.48Z" transform="translate(-151.7 -149.54)"/><path class="cls-7" d="M870,195.6c-4.15-.11-5.55.26-9.67.77,0,0,.69,18.55,1.05,26.25.07,1.56-.24,4.53-.22,4.94.07,2.46-.45,5.74-.51,9.05,0,1.72-1,3.2-.83,4,.26,1.66,7.64,1.49,10.68.9.12-1.89-.09-6.58.2-10.19,0-.43.05-1.1,0-1.53a59.71,59.71,0,0,0-.3-6c-1-7.57,1.15-15.16,1.61-22.78l-.56-4.13Z" transform="translate(-151.7 -149.54)"/><path class="cls-1" d="M820.33,304a2,2,0,0,1,1.42.45,1.86,1.86,0,0,1,.35,1,26.12,26.12,0,0,1,0,5.59c-.54,8-.55,16.06-.56,24.1,0,1.74,0,3.49.17,5.23.09.91.22,1.81.26,2.73a18.72,18.72,0,0,1-.64,5.46,2.15,2.15,0,0,1-1,1.57,2.23,2.23,0,0,1-1,.12l-8.91-.28a14.32,14.32,0,0,1,.27-4.23c.13-.64.32-1.27.44-1.91a18.14,18.14,0,0,0,.25-2.75c.11-3.11,0-6.22-.13-9.33l-.14-3.46a102.93,102.93,0,0,1,0-11c.21-3,.68-6,.23-9a17.6,17.6,0,0,0-.43-2c-.12-.48-.63-1.47-.53-1.94.19-.85,1-.4,1.73-.33C814.82,304.18,817.62,303.83,820.33,304Z" transform="translate(-151.7 -149.54)"/><path class="cls-1" d="M843.79,304a3.35,3.35,0,0,1,2.74.79,3.25,3.25,0,0,1,.54,1.87,52.45,52.45,0,0,1,0,7.31,23.36,23.36,0,0,0-.1,5.15c.12.84.36,1.66.43,2.51a17.49,17.49,0,0,1-.29,3.6c-.71,5.78.75,11.75-.62,17.41a11.34,11.34,0,0,0-.35,1.81,17.17,17.17,0,0,0,.38,2.83,3.12,3.12,0,0,1-.68,2.67,3.3,3.3,0,0,1-1.27.67,15.53,15.53,0,0,1-7.24.14,3.18,3.18,0,0,1-1.6-.6,2.92,2.92,0,0,1-.81-1.74,27.72,27.72,0,0,1-.33-5l-.06-15a21.74,21.74,0,0,0-.15-2.91,18.42,18.42,0,0,1-.26-1.94,13.48,13.48,0,0,1,.25-2.53,39.67,39.67,0,0,0,.3-4.87l.13-5.87a25.48,25.48,0,0,1,.15-5c.35-1.49,1.76-1.18,3-1.19Z" transform="translate(-151.7 -149.54)"/><path class="cls-1" d="M869.92,303.39a1,1,0,0,1,.65.12,1,1,0,0,1,.34.73,35.84,35.84,0,0,1,.16,6.95l-.08,2.07c-.06,1.46-.12,2.93-.21,4.39-.06.94-.14,1.87-.19,2.81-.07,1.47-.09,2.94-.1,4.41l0,4.46a126.32,126.32,0,0,0,.49,15.57,4.9,4.9,0,0,1-.1,2.38,4.08,4.08,0,0,0-.46,1.23c0,.25,0,.54-.09.75a.92.92,0,0,1-.46.31,7.83,7.83,0,0,1-2.62.69,24.28,24.28,0,0,1-3.37-.6c-1.18-.14-2.53.06-3.42-.72a3.06,3.06,0,0,1-.78-2.62c.1-.94.39-1.86.4-2.8,0-1.21-.46-2.39-.37-3.6a14.79,14.79,0,0,1,.44-2.08,17.74,17.74,0,0,0,.17-4.31c-.2-4.8-.19-9.61-.18-14.42,0-4.44-.07-8.9,0-13.34,0-2.18,1.08-2,3-2.06Z" transform="translate(-151.7 -149.54)"/><path class="cls-1" d="M900.44,309.56a1.62,1.62,0,0,1,1.61,2c.19,2.77-.38,5.53-.46,8.3-.09,3.25.51,6.49.27,9.72a29.25,29.25,0,0,0-.31,5.28c.08.81.29,1.61.39,2.42a10.3,10.3,0,0,1-1,6,37.75,37.75,0,0,1-10.29-.3,20.72,20.72,0,0,0,.93-6.84l.29-11.56.07-2.61.14-5.73a31.91,31.91,0,0,1,.14-5C892.71,308.62,898.5,309.37,900.44,309.56Z" transform="translate(-151.7 -149.54)"/><path class="cls-1" d="M925.75,309.62a3.23,3.23,0,0,1,1.42.15,2.2,2.2,0,0,1,1.21,1.7,6.82,6.82,0,0,1-.07,2.16c-.41,3,0,6.11-.09,9.18,0,.76-.71,1.51-.59,2.27s.41,1.59.56,2.41a14.88,14.88,0,0,1,.17,2.91l-.05,12.33a6.25,6.25,0,0,1-4.94,1.2,16.29,16.29,0,0,0-2.46-.51c-.57,0-1.13.11-1.69.05a1.47,1.47,0,0,1-1.32-.9,2,2,0,0,1,0-.6l.25-10.24a11.48,11.48,0,0,1,.12-1.66c.08-.51.23-1,.32-1.52.13-.75-.43-1.42-.43-2.19-.05-4.43.38-9,.41-13.4,0-1.12-1.2-2.31,0-2.82C920.16,309.46,924,309.7,925.75,309.62Z" transform="translate(-151.7 -149.54)"/><polygon class="cls-1" points="781.73 160.88 812.43 160.88 813 161.91 813 169.63 811.22 172 783.15 170.69 782.05 169.75 781.73 160.88"/><polygon class="cls-1" points="884.94 171.67 858.84 172.46 855.13 171.03 854.18 167.59 855.36 164.31 856.41 161.33 858.64 161.33 863.83 161.92 872.3 162.16 881.75 160.83 884.21 161.33 884.94 164.97 884.94 171.67"/><polygon class="cls-1" points="891.96 159.8 901.09 160.24 902.5 161.65 901.15 190.12 899.75 192.6 897.64 193.57 892.7 192.89 890.41 191.07 890.41 188.78 891.96 159.8"/><polygon class="cls-1" points="917.1 160.02 927.71 160.4 929 161.33 929 192.03 927.67 193.99 922.09 195.16 919.62 194.07 916.73 189.67 917.8 174.09 917.1 160.02"/><polyline class="cls-1" points="949.2 198.67 948.01 195.86 949.85 181.75 948.93 166.12 948.4 154.5 951.45 154.18 954.96 153.71 957.17 153.71 959.56 155.44 959.56 197.9 957.27 200.59 954.22 200.71 950.37 200.2 949.2 198.67"/><polyline class="cls-1" points="973.21 198.26 972.51 195.48 972.86 154.25 982.03 153.29 984.64 154.25 986.15 165.73 983.85 197.98 981.77 200.78 977.88 200.41 973.21 198.26"/><polyline class="cls-1" points="998.19 199.57 996.71 197.97 998.19 176.65 998.19 154.63 1000.41 154.63 1005.96 154.25 1008.19 156.33 1010.08 169.18 1009.66 186.82 1008.01 198.22 1005.65 199.53 998.19 199.57"/><polygon class="cls-1" points="998.09 46.26 1007.5 45.69 1009.16 47.01 1009.29 61.31 1009.03 91.44 1007.3 93.17 1002.13 93.17 998.88 92.71 997.66 91.44 998.2 87.29 998.09 46.26"/><polygon class="cls-1" points="973.39 46.37 984.46 45.69 985.69 47.35 985.69 61.31 985.69 90.93 982.93 93.02 977.55 92.58 974.3 92.49 972.33 91.37 972.27 86.97 972.27 53.07 973.39 46.37"/><polyline class="cls-1" points="949.49 46.7 950.24 46.26 958.77 46.48 959.26 47.39 959.68 90.94 959.89 92.07 959.05 92.77 955.59 92.48 952.86 93.02 949.49 92.71 948.91 91.31 949.5 88.9 948.91 82.44 950.11 76.63 948.58 58.56 949.49 46.7"/></g><g id="BORDES"><path class="cls-14" d="M152.2,399.56s.11-2.48.33-7,.48-11,.83-19.06c.65-16.09,1.35-38.33,1.72-62.9s.31-46.82.14-62.92c-.11-8.06-.2-14.57-.27-19.07l-.12-7s.07,2.49.2,7,.29,11,.44,19.07c.3,16.11.47,38.36.11,62.94s-1.2,46.82-2,62.9c-.39,8.05-.74,14.56-1,19.05Z" transform="translate(-151.7 -149.54)"/><path class="cls-14" d="M343.82,219l-27.74,1.13c-17.13.67-40.81,1.54-67,2s-49.87.29-67-.1c-8.57-.19-15.51-.4-20.3-.57l-7.44-.27,7.44.19c4.79.12,11.73.28,20.3.4,17.15.27,40.84.32,67-.15s49.84-1.21,67-1.75Z" transform="translate(-151.7 -149.54)"/><path class="cls-14" d="M345.82,257.33s-.55-8.37-.92-18.71-.41-18.72-.41-18.72.54,8.37.91,18.71S345.82,257.33,345.82,257.33Z" transform="translate(-151.7 -149.54)"/><path class="cls-14" d="M345.6,259.23s-26.74.51-59.72.83-59.73.32-59.73.32,26.74-.5,59.72-.82S345.6,259.23,345.6,259.23Z" transform="translate(-151.7 -149.54)"/><path class="cls-14" d="M225.65,285.12l.2-.94c.13-.6.3-1.48.48-2.57a57.87,57.87,0,0,0,.74-8.55,59.28,59.28,0,0,0-.52-8.57c-.15-1.09-.29-2-.41-2.58l-.17-1,.25.93c.16.6.36,1.47.58,2.56a42.28,42.28,0,0,1-.23,17.21c-.24,1.08-.46,1.95-.64,2.54Z" transform="translate(-151.7 -149.54)"/><path class="cls-14" d="M226.47,357.76s-.25-7.31-.25-16.33.25-16.34.25-16.34.25,7.31.25,16.34S226.47,357.76,226.47,357.76Z" transform="translate(-151.7 -149.54)"/><path class="cls-15" d="M225.78,325.1l111.33,0c1.27-3.35-.37-7-.51-10.63a30.75,30.75,0,0,1,.95-7.17,71.62,71.62,0,0,0,1.13-19c-13.2-2.86-26.85-2.66-40.34-2.06-23.94,1.06-48,3.33-71.8.52-1-.12-2.36-1-1.7-1.78" transform="translate(-151.7 -149.54)"/><path class="cls-15" d="M151.89,399q97.52-4.41,195.16-.2a2,2,0,0,0,1.63-.42A2,2,0,0,0,349,397l-1.17-37.46c-9.36,1.13-18.81,1.1-28.24,1.06l-86.54-.28c-2.52,0-5.38-.17-7-2.09" transform="translate(-151.7 -149.54)"/><path class="cls-14" d="M383.89,397.19l-.33-1.75c-.2-1.16-.46-2.87-.66-5.08s-.37-4.93-.41-8.09,0-6.76,0-10.73c0-2,0-4.06-.1-6.23s-.12-4.43-.07-6.77.14-4.75.14-7.24-.05-5.05,0-7.68c.15-10.52,1-22,1.39-34.16.85-24.24.63-46.21.15-62.09-.24-8-.53-14.37-.74-18.81s-.36-6.89-.36-6.89.16,2.45.44,6.88.61,10.87.91,18.81c.61,15.88.95,37.86.1,62.11-.35,12.13-1.27,23.66-1.47,34.16-.05,2.63,0,5.18,0,7.67s-.12,4.91-.18,7.25-.07,4.58,0,6.75.07,4.26.06,6.24c0,4-.11,7.57-.09,10.73s.14,5.87.33,8.08.43,3.93.61,5.08Z" transform="translate(-151.7 -149.54)"/><path class="cls-14" d="M475.3,219.73s-20.71.58-46.27,1-46.28.49-46.28.49,20.71-.58,46.27-1S475.3,219.73,475.3,219.73Z" transform="translate(-151.7 -149.54)"/><path class="cls-14" d="M384.13,398.29l27.55.84,13.93.45,7.76.25,4.05.13a3.63,3.63,0,0,0,1.9-.34,2.07,2.07,0,0,0,.9-1.61c.21-11.21.29-23.63.47-36.62.68-52,1.47-94.12,1.47-94.12s-.29,42.15-1,94.13c-.19,13-.29,25.36-.56,36.66a2.43,2.43,0,0,1-1.1,1.91,4,4,0,0,1-2.12.39l-4.06-.15-7.75-.29-13.92-.54Z" transform="translate(-151.7 -149.54)"/><path class="cls-14" d="M549.46,221.75l-9.68,31.55c-3,9.74-6.63,21.34-10.63,34.22-2,6.43-4.19,13.17-6.83,20-1.34,3.42-2.8,6.87-4.45,10.29-.82,1.71-1.71,3.4-2.63,5.1-.49.83-.92,1.67-1.46,2.51a5.36,5.36,0,0,1-2.25,2,2,2,0,0,1-1.61,0,2.36,2.36,0,0,1-1.11-1.14c-.43-.93-.67-1.83-1-2.74-.63-1.82-1.26-3.62-1.87-5.41l-3.6-10.6c-2.32-7-4.53-13.69-6.58-20.11-4.1-12.85-7.63-24.47-10.5-34.25s-5.11-17.73-6.62-23.23-2.34-8.54-2.34-8.54.86,3,2.41,8.52,3.86,13.41,6.79,23.18,6.52,21.36,10.66,34.19c2.08,6.42,4.3,13.14,6.64,20.09L506.4,318l1.88,5.41c.33.89.59,1.86,1,2.68a1.59,1.59,0,0,0,2.09.91,5,5,0,0,0,2-1.83c.5-.78,1-1.66,1.43-2.48.92-1.68,1.81-3.36,2.62-5.07,1.65-3.4,3.12-6.83,4.45-10.24,2.65-6.84,4.83-13.57,6.88-20l10.79-34.16Z" transform="translate(-151.7 -149.54)"/><path class="cls-14" d="M639,221.24l-13.21-.4c-8.16-.22-19.44-.41-31.89-.42s-23.74.18-31.9.38l-13.21.39s5-.3,13.2-.64,19.44-.64,31.91-.63,23.74.33,31.9.67S639,221.24,639,221.24Z" transform="translate(-151.7 -149.54)"/><path class="cls-14" d="M638.32,397.89s.09-9.9.23-25.89c.09-8,.19-17.52.31-28.1s.52-22.2.81-34.4c.1-3.05.1-6.07.28-9s.32-5.89.48-8.76c.34-5.75.66-11.29,1-16.57.58-10.55.77-20.07.56-28.07a171.91,171.91,0,0,0-1.45-18.87c-.25-2.22-.58-3.93-.75-5.09l-.29-1.77.31,1.77c.18,1.16.54,2.86.81,5.08a169.3,169.3,0,0,1,1.62,18.88c.27,8,.14,17.53-.39,28.1-.25,5.28-.57,10.82-.9,16.57q-.23,4.31-.47,8.76c-.18,3-.17,6-.27,9-.32,12.2-.62,23.82-.89,34.39S638.94,364,638.8,372C638.5,388,638.32,397.89,638.32,397.89Z" transform="translate(-151.7 -149.54)"/><path class="cls-14" d="M442.53,264.58l44.09,134.75-.54-1.7c0-.08.11.35.4,1.21l.09.28c0,.08,0,.24.17.19h9.59l41,0,13-37.65c9.18-26.56,18-52,24.25-70.12,3.14-9.05,5.64-16.27,7.23-20.87.94-2.67,1.6-4.58,2-5.62l.12-.35c0-.05,0,0,0,0v.55c0,.09,0-.07,0-.5.1,3.33.21,6.6.31,9.8.08,2.94.15,5.81.22,8.63q.2,8.44.3,16.16c.13,10.29.14,19.63.1,28.07-.09,16.9-.44,30.22-.76,40.48s-.65,17.45-.86,22.08-.33,6.69-.33,6.69.09-2.07.3-6.69.5-11.82.79-22.08.62-23.59.66-40.48c0-8.44,0-17.78-.15-28.07q-.12-7.71-.32-16.15c-.07-2.82-.15-5.69-.23-8.63q-.13-4-.28-8.2c0,.32,0,.45,0,.42v-.17s0-.15,0-.13l-.08.24c-.25.75-.72,2.13-1.38,4.06-1.58,4.61-4.07,11.83-7.18,20.89-6.24,18.12-15,43.58-24.18,70.14l-13.13,38-41.33,0h-9.8c-.23.07-.2-.19-.27-.32l-.13-.41c-.28-.87-.42-1.3-.39-1.22l.64,1.93Z" transform="translate(-151.7 -149.54)"/><path class="cls-14" d="M756.13,220.89l-2.69-.21c-1.73-.14-4.23-.31-7.32-.48-6.19-.35-14.75-.62-24.21-.49s-18,.67-24.17,1.2c-3.09.27-5.59.51-7.31.7l-2.68.28,2.67-.36c1.72-.24,4.21-.54,7.29-.86,6.17-.66,14.73-1.31,24.2-1.46s18,.27,24.22.74c3.1.24,5.59.47,7.32.65Z" transform="translate(-151.7 -149.54)"/><path class="cls-14" d="M758.52,398s-15.91.66-35.54,1.17-35.56.67-35.56.67,15.91-.67,35.55-1.17S758.52,398,758.52,398Z" transform="translate(-151.7 -149.54)"/><path class="cls-14" d="M757.75,397.91s.09-2.44.24-6.87.34-10.83.59-18.74c.44-15.82.86-37.69.94-61.85s-.23-46-.58-61.86c-.2-7.91-.36-14.32-.48-18.74s-.2-6.87-.2-6.87.1,2.44.28,6.87.41,10.82.65,18.74c.47,15.82.9,37.7.83,61.86s-.62,46-1.19,61.86c-.28,7.91-.55,14.31-.76,18.74S757.75,397.91,757.75,397.91Z" transform="translate(-151.7 -149.54)"/><path class="cls-14" d="M687.52,400.32l-.29-1.79c-.1-.58-.22-1.31-.36-2.17s-.23-1.86-.36-3a134.53,134.53,0,0,1-.69-19.11c.17-8.08,1-17.67,1.86-28.31s1.22-22.38,1.07-34.69c-1.28-49.28-2.32-89.22-2.32-89.22s.35,10,.92,26.12c.28,8.07.6,17.68,1,28.36s.8,22.4.94,34.73S689,335.35,688.1,346s-1.79,20.22-2,28.29a139.51,139.51,0,0,0,.51,19.09c.13,1.13.24,2.12.34,3l.33,2.17Z" transform="translate(-151.7 -149.54)"/><path class="cls-14" d="M638.69,398l-2.26.45c-1.46.26-3.59.61-6.23.9a166.23,166.23,0,0,1-20.76.72c-8.11-.12-15.45-.3-20.76-.45-1.33,0-2.53,0-3.59-.14a3,3,0,0,1-2.36-1.22,1.88,1.88,0,0,1-.2-1.66,1.34,1.34,0,0,1,.35-.48,1.47,1.47,0,0,0-.33.49,1.84,1.84,0,0,0,.24,1.61,2.91,2.91,0,0,0,2.31,1.11c1,.07,2.26,0,3.58,0,5.32,0,12.66.08,20.76.2a201.61,201.61,0,0,0,20.73-.47c2.65-.23,4.78-.51,6.25-.73Z" transform="translate(-151.7 -149.54)"/><path class="cls-16" d="M794.32,379.14l1.34-.27c.44-.09,1-.2,1.68-.29s1.47-.23,2.38-.31a88.22,88.22,0,0,1,16.38,0l12.21,1c4.52.34,9.5.48,14.93.47s11.32-.19,17.66-.36l19.74-.5a1.86,1.86,0,0,1-.37,0h.23s.13,0,.11-.07c0-.58,0-1.68,0-3.12,0-3.27-.05-8.13-.09-13.13,0,.22.13-.07-.3,0l-1.9.05-8.51.19c-16.06.34-31.37.4-45.29-.14-7-.27-13.57-.67-19.74-1.21-1.55-.11-3.06-.31-4.5-.28a6.33,6.33,0,0,0-3.86,1.12,5.25,5.25,0,0,0-1.78,3.37,27.77,27.77,0,0,0-.26,4c0,1.32-.08,2.6-.11,3.85a16.57,16.57,0,0,1-.32,3.71,2.71,2.71,0,0,1-1.08,1.59A2.44,2.44,0,0,1,791,379c-.57-.12-1.08-.31-1.58-.37a2.09,2.09,0,0,0-1.38.26,3.87,3.87,0,0,0-1.44,2.38,14.53,14.53,0,0,0-.33,2.74c-.1,1.79-.2,3.42-.29,4.89-.35,5.87-.54,9.12-.54,9.12l.31-9.13c0-1.47.11-3.11.17-4.9a14.7,14.7,0,0,1,.28-2.81,4.25,4.25,0,0,1,1.59-2.69,2.55,2.55,0,0,1,1.68-.36c.58.06,1.12.24,1.63.34a1.91,1.91,0,0,0,1.44-.21,2.09,2.09,0,0,0,.8-1.26,16.14,16.14,0,0,0,.23-3.55c0-1.25,0-2.54,0-3.85a28.71,28.71,0,0,1,.2-4.09,6.16,6.16,0,0,1,2-3.94,7.28,7.28,0,0,1,4.4-1.38c1.54-.05,3.06.13,4.6.22,6.16.45,12.76.77,19.7,1,13.89.41,29.17.25,45.22-.09l12.2-.25c0,5.56,0,11,0,14.62,0,2,0,3.55,0,4.37,0,.16-.13.1-.2.11h-.45a3.69,3.69,0,0,1,.62,0l-21,.35c-6.34.1-12.23.21-17.68.15s-10.45-.26-15-.67-8.59-.89-12.2-1.21a89.1,89.1,0,0,0-16.33-.35c-.91.06-1.7.16-2.38.25s-1.24.17-1.69.25Z" transform="translate(-151.7 -149.54)"/><path class="cls-16" d="M882.2,379.72l5.18-.32,2.78-.17a6,6,0,0,1,1.67,0,1.85,1.85,0,0,1,1.36,1.16,4.39,4.39,0,0,1,.15,2c-.05.63-.11,1.28-.16,1.95-.12,1.34-.25,2.76-.38,4.25s-.22,3-.47,4.7a4.7,4.7,0,0,1-1.11,2.49,5.07,5.07,0,0,1-2.5,1.32c-3.54.83-7.37.76-11.3.79-7.91,0-16.6,0-25.72,0-36.48-.17-66.06-1.06-66.06-1.06s29.58-.61,66.07-.44c9.12,0,17.81.13,25.71.24,4,.05,7.71.19,11.06-.52a4.06,4.06,0,0,0,2-1,3.84,3.84,0,0,0,.93-2c.27-1.54.4-3.15.6-4.62s.35-2.9.51-4.23q.12-1,.24-1.95a4.07,4.07,0,0,0,0-1.68,1.47,1.47,0,0,0-1.09-1,5.72,5.72,0,0,0-1.5-.09l-2.78.05Z" transform="translate(-151.7 -149.54)"/><path class="cls-16" d="M892,397.18l7.08-.31,8.41-.28a4.69,4.69,0,0,0,2.2-.63,2.12,2.12,0,0,0,1.09-1.75,9.17,9.17,0,0,0-.82-2.58c-.4-1.14-.42-2.78.75-3.57-.13.08-.05,0,.25-.17a2.73,2.73,0,0,1,1.55-.26c.81.06,1.34.22,1.91.2a2.62,2.62,0,0,0,1.57-.72,5.27,5.27,0,0,0,1.42-2.51,11.71,11.71,0,0,0,.58-2.9,1.65,1.65,0,0,0-.29-1,1.24,1.24,0,0,0-.93-.45l-.27,0H915.4l-1.48,0c-3.89-.08-7.39-.17-10.34-.27-5.88-.19-9.52-.38-9.52-.38s3.64-.18,9.52-.37c2.95-.09,6.45-.18,10.34-.25l1.48,0,.75,0h.4l.49,0a2.49,2.49,0,0,1,1.75.83,3.1,3.1,0,0,1,.65,1.9,7.22,7.22,0,0,1-.2,1.79c-.12.54-.24,1.07-.4,1.63a6.69,6.69,0,0,1-1.83,3.2,4.15,4.15,0,0,1-2.51,1.09,13.44,13.44,0,0,1-1.89-.21c-.75-.12-1.12.26-1,.12a1.21,1.21,0,0,0-.53.91,2.69,2.69,0,0,0,.12,1.08,9.39,9.39,0,0,1,.8,3,3,3,0,0,1-.55,1.63,3.81,3.81,0,0,1-1.18,1.06,5.72,5.72,0,0,1-2.72.69c-3.37,0-6.15-.11-8.47-.17Z" transform="translate(-151.7 -149.54)"/><path class="cls-16" d="M882.66,361.67s16.74-.66,37.39-.55l3.81,0a23,23,0,0,1,3.72.23c2.43.35,4.65,1.8,5.39,3.74a4.07,4.07,0,0,1-.92,4.44c-.42.34-.78.57-1,.53s-.26-.1-.12-.08a4.65,4.65,0,0,0-1.38-.17,4.8,4.8,0,0,0-1.15.24,4.71,4.71,0,0,0-1.86,1.18,4.12,4.12,0,0,0-1,1.7,4.9,4.9,0,0,0-.16,1.82,10,10,0,0,1,0,3.29,2.62,2.62,0,0,1-1.77,1.8,4.82,4.82,0,0,1-1.84.12,8.2,8.2,0,0,1-1.19-.24c-.6-.15-.84-.24-.84-.24l.85.18a8.85,8.85,0,0,0,1.19.16,4.51,4.51,0,0,0,1.75-.2A2.31,2.31,0,0,0,925,378a9.88,9.88,0,0,0-.1-3.17,5.5,5.5,0,0,1,.11-2,4.79,4.79,0,0,1,1.1-2,5.33,5.33,0,0,1,2.07-1.39,5.2,5.2,0,0,1,1.32-.32,4.45,4.45,0,0,1,1.26.08c-.11,0-.08-.06.06,0s.35-.2.59-.44a2.64,2.64,0,0,0,.57-1.19,3.1,3.1,0,0,0-.19-1.92,5.5,5.5,0,0,0-4.45-2.81,22.93,22.93,0,0,0-3.49-.17H920C899.39,362.51,882.66,361.67,882.66,361.67Z" transform="translate(-151.7 -149.54)"/><polygon class="cls-17" points="942.77 212.13 943.03 39.8 936.13 28.82 936.13 1.5 950.18 1.5 950.18 12.48 959.62 12.73 960.9 1.5 973.92 1.5 973.92 12.99 983.88 12.99 983.88 1.5 998.18 1.5 998.18 12.99 1007.37 12.99 1007.37 1.5 1022.18 1.5 1022.18 28.05 1015.54 38.78 1015.54 212.13 942.77 212.13"/><polygon class="cls-17" points="652.92 212.13 653.18 39.8 646.29 28.82 646.29 1.5 660.33 1.5 660.33 12.48 669.77 12.73 671.05 1.5 684.07 1.5 684.07 12.99 694.03 12.99 694.03 1.5 708.33 1.5 708.33 12.99 717.52 12.99 717.52 1.5 732.33 1.5 732.33 28.05 725.69 38.78 725.69 212.13 652.92 212.13"/><polyline class="cls-17" points="725.69 103.63 740.3 103.63 740.3 118.44 725.69 118.44 790.6 118.44 790.6 103.63 776.3 103.63 776.56 118.44 765.33 118.44 765.33 103.63 750.52 103.63 749.75 118.44"/><polyline class="cls-17" points="876.52 103.63 892.73 103.63 892.73 118.44 876.9 118.44 943.03 118.44 943.03 103.63 928.73 103.63 928.98 118.44 917.75 118.44 917.75 103.63 902.94 103.63 902.18 118.44"/><polyline class="cls-17" points="790.6 212.13 790.6 85.75 775.54 66.86 775.54 41.33 792.13 41.33 792.13 52.56 808.47 52.56 808.47 41.33 825.07 41.33 825.07 52.31 842.94 52.31 842.94 41.33 859.54 41.33 859.54 52.82 875.88 52.82 875.88 41.33 891.96 41.33 891.96 66.35 875.88 86.27 875.88 212.13"/><path class="cls-14" d="M901.91,310.43a1.17,1.17,0,0,0,0-.22.37.37,0,0,0-.11-.24.76.76,0,0,0-.34-.15,17.5,17.5,0,0,0-2.48-.27c-1.08-.06-2.41-.06-4,0a8.66,8.66,0,0,0-2.41.39c-1.07.08-.69,1.3-.79,2.21-.09,3.87.32,8.52,0,13.66-.07,2.56,0,5.25.05,8,0,1.4,0,2.82,0,4.27,0,.72,0,1.45,0,2.19s-.08,1.41-.11,2.13c0,.16.08.35.21.36h.15c2.82.06,5.84.24,8.48.21a1.19,1.19,0,0,0,.78-.36,1.39,1.39,0,0,0,.29-.81c0-.63,0-1.33,0-2,0-1.33,0-2.63,0-3.89,0-5.05.08-9.56.11-13.34.08-7.56.14-12.17.14-12.17s0,4.61.1,12.17c0,3.78,0,8.29.07,13.34,0,1.26,0,2.56,0,3.89,0,.67,0,1.31,0,2a1.82,1.82,0,0,1-.4,1.07,1.65,1.65,0,0,1-1,.52,17,17,0,0,1-2.14,0l-2.13-.06-4.42-.13a1.2,1.2,0,0,1-.29,0,.75.75,0,0,1-.44-.69,2.16,2.16,0,0,1,0-.36l0-.28,0-.55.06-1.09.06-2.18c0-1.44,0-2.86,0-4.26,0-2.79-.09-5.49,0-8.07.36-5.13,0-9.75.17-13.64,0-.49,0-1,.06-1.43a.86.86,0,0,1,.27-.69,2.41,2.41,0,0,1,.65-.28,8.08,8.08,0,0,1,2.46-.35c1.55,0,2.88,0,4,.09a18.85,18.85,0,0,1,2.48.33.68.68,0,0,1,.34.16.42.42,0,0,1,.11.25A1.73,1.73,0,0,1,901.91,310.43Z" transform="translate(-151.7 -149.54)"/><path class="cls-14" d="M928.23,310.43a.73.73,0,0,0,0-.22.37.37,0,0,0-.11-.24.76.76,0,0,0-.34-.15,17.5,17.5,0,0,0-2.48-.27c-1.08-.06-2.42-.06-4,0a8.65,8.65,0,0,0-2.4.39c-1.07.08-.69,1.3-.8,2.21-.08,3.87.33,8.52,0,13.66-.07,2.56,0,5.25,0,8,0,1.4,0,2.82,0,4.27q0,1.08-.06,2.19c0,.7-.07,1.41-.1,2.13,0,.16.08.35.21.36h.15c2.82.06,5.83.24,8.48.21a1.19,1.19,0,0,0,.77-.36,1.32,1.32,0,0,0,.29-.81c0-.63,0-1.33,0-2,0-1.33,0-2.63,0-3.89,0-5.05.08-9.56.11-13.34.08-7.56.13-12.17.13-12.17s0,4.61.11,12.17c0,3.78,0,8.29.07,13.34,0,1.26,0,2.56,0,3.89,0,.67,0,1.31,0,2A1.82,1.82,0,0,1,928,343a1.65,1.65,0,0,1-1,.52,16.82,16.82,0,0,1-2.13,0l-2.13-.06-4.42-.13a1.15,1.15,0,0,1-.29,0c-.24-.05-.42-.37-.44-.69a2.16,2.16,0,0,1,0-.36l0-.28,0-.55.06-1.09c0-.73,0-1.46.05-2.18,0-1.44,0-2.86,0-4.26,0-2.79-.08-5.49,0-8.07.36-5.13,0-9.75.16-13.64,0-.49,0-1,.07-1.43a.8.8,0,0,1,.27-.69,2.5,2.5,0,0,1,.64-.28,8.18,8.18,0,0,1,2.47-.35c1.55,0,2.88,0,4,.09a18.8,18.8,0,0,1,2.49.33.68.68,0,0,1,.34.16.49.49,0,0,1,.11.25A.92.92,0,0,1,928.23,310.43Z" transform="translate(-151.7 -149.54)"/><path class="cls-15" d="M820.68,195.89a1.22,1.22,0,0,1,.63.11,1,1,0,0,1,.33.38c1.33,2.19.37,5,.18,7.53-.12,1.5,0,3,.07,4.52.05,3.88-.84,7.73-.8,11.61,0,1.26.12,2.5.21,3.75a135.39,135.39,0,0,1-.16,17.56,3.89,3.89,0,0,1-2.48.52l-6.47-.15a1.86,1.86,0,0,1-.91-.18,1.36,1.36,0,0,1-.5-1.44,10.79,10.79,0,0,1,.58-1.52c.72-2,0-4.09-.16-6.16-.17-2.52.55-5,.65-7.52.12-3-.61-5.86-.85-8.81-.32-4,.28-8,.49-12a41,41,0,0,0-.13-6c-.15-1.79.32-2.27,2.12-2.28Z" transform="translate(-151.7 -149.54)"/><path class="cls-15" d="M870.23,195.89a1.17,1.17,0,0,1,.62.11,1,1,0,0,1,.34.38c1.32,2.19.37,5,.17,7.53-.11,1.5,0,3,.08,4.52,0,3.88-.84,7.73-.8,11.61,0,1.26.12,2.5.21,3.75a135.39,135.39,0,0,1-.16,17.56,3.92,3.92,0,0,1-2.49.52l-6.47-.15a1.88,1.88,0,0,1-.91-.18,1.35,1.35,0,0,1-.49-1.44,9.69,9.69,0,0,1,.58-1.52c.72-2,0-4.09-.16-6.16-.18-2.52.55-5,.65-7.52.12-3-.61-5.86-.85-8.81-.32-4,.28-8,.49-12a41,41,0,0,0-.13-6c-.16-1.79.32-2.27,2.12-2.28Z" transform="translate(-151.7 -149.54)"/><path class="cls-15" d="M835.57,227c0,1,0,2.05,0,3.08.1,4,.94,8,.23,12a70.81,70.81,0,0,0,11.37-.5,91,91,0,0,1-.92-18.36c0-.93.11-1.85.16-2.78a145,145,0,0,0-.8-25.6c0-.12-7.63.16-8.33.17-1.19,0-1.89,0-1.79,1.19s.17,2.55.18,3.85q.11,8.6,0,17.19C835.68,220.46,835.63,223.71,835.57,227Z" transform="translate(-151.7 -149.54)"/><path class="cls-14" d="M811.14,303.83v16.4c0,5.07,0,11.1-.06,17.8,0,3.33-.06,6.89,0,10.48a1.24,1.24,0,0,0,.54,1,2.59,2.59,0,0,0,1.2.34c.9.05,1.85.05,2.79.07l2.84.06a7.59,7.59,0,0,0,2.73-.16,1,1,0,0,0,.52-1l.07-1.43c.06-.95.08-1.89.11-2.83.06-1.88.06-3.73.06-5.55,0-3.64-.13-7.16-.21-10.5-.19-6.7-.21-12.75.13-17.81.1-1.26.19-2.46.28-3.6s-.14-2.3-1-2.78a2.85,2.85,0,0,0-1.37-.29h-8.1l4.39-.07,2.36,0h1.35a3,3,0,0,1,1.45.28,2,2,0,0,1,1,1.25,5.2,5.2,0,0,1,.19,1.68c-.07,1.14-.15,2.34-.23,3.61-.28,5.05-.19,11.08,0,17.77.11,3.35.23,6.87.27,10.52,0,1.82,0,3.68,0,5.56,0,.94-.05,1.89-.1,2.85l-.08,1.44a2,2,0,0,1-.17.79,1.36,1.36,0,0,1-.61.62,3.21,3.21,0,0,1-1.53.24l-1.44,0-2.84-.06c-1,0-1.86,0-2.82-.08a3.08,3.08,0,0,1-1.43-.43,1.72,1.72,0,0,1-.74-1.33c0-3.7,0-7.17.08-10.54.08-6.69.16-12.73.23-17.79C811,310.1,811.14,303.83,811.14,303.83Z" transform="translate(-151.7 -149.54)"/><path class="cls-14" d="M834.37,304.77s.06,6.43.15,16.84c0,5.2.06,11.4.1,18.28,0,1.72,0,3.48,0,5.28,0,.9,0,1.81,0,2.73v1.38c0,.44.12.83.46,1a3.74,3.74,0,0,0,1.29.09l1.42,0,2.88,0,2.92,0a7.27,7.27,0,0,0,1.42-.09,1.65,1.65,0,0,0,1.09-.61c.24-.33.12-.74,0-1.23a2.6,2.6,0,0,1-.12-.81l0-.74q.16-1.47.3-2.91a25,25,0,0,0,.16-2.84c0-.94-.08-1.9-.07-2.84,0-3.75.29-7.36.34-10.79-.09-6.87.22-13.08.42-18.27,0-.65,0-1.28.07-1.9a5.73,5.73,0,0,0-.11-1.77,1.54,1.54,0,0,0-1-1.13,10.34,10.34,0,0,0-1.56-.25,42.49,42.49,0,0,0-5.28-.28c-1.46,0-2.58.1-3.35.16l-1.16.12,1.16-.14c.76-.08,1.89-.18,3.35-.22a43,43,0,0,1,5.3.2,10.7,10.7,0,0,1,1.6.24,1.72,1.72,0,0,1,1.18,1.25,5.83,5.83,0,0,1,.15,1.82c0,.62,0,1.26,0,1.91-.14,5.2-.38,11.38-.25,18.27,0,3.45-.3,7.05-.29,10.78,0,.94.05,1.86.08,2.83a25.59,25.59,0,0,1-.14,2.9l-.3,2.9,0,.72a2.24,2.24,0,0,0,.1.65,5.17,5.17,0,0,1,.17.77,1.25,1.25,0,0,1-.21.86,2.09,2.09,0,0,1-1.41.84,7.82,7.82,0,0,1-1.51.1l-2.92,0-2.88,0h-1.42a3.78,3.78,0,0,1-1.5-.14,1.12,1.12,0,0,1-.6-.61,2.44,2.44,0,0,1-.13-.77V347.9c0-.92,0-1.83,0-2.73,0-1.8,0-3.56,0-5.28,0-6.88,0-13.08.07-18.28C834.33,311.2,834.37,304.77,834.37,304.77Z" transform="translate(-151.7 -149.54)"/><path class="cls-14" d="M860,303.74s.06,6.2.16,16.21c0,5,.09,11,.14,17.58,0,1.65,0,3.35,0,5.08,0,.87,0,1.74,0,2.63a12.2,12.2,0,0,0,.15,2.59,1.51,1.51,0,0,0,.67.93,3.32,3.32,0,0,0,1.23.29l2.75.28c.92.08,1.87.21,2.78.27s1.9-.15,2.13-1a5.31,5.31,0,0,0,.08-1.35l0-1.41,0-2.81c0-1.86,0-3.7,0-5.5,0-3.6,0-7.07.08-10.38.1-6.62.28-12.58.48-17.58q.08-1.87.15-3.57a4.93,4.93,0,0,0-.13-1.6,1.34,1.34,0,0,0-1-1,5.13,5.13,0,0,0-1.41,0l-1.33.07-2.33.11-4.34.22,4.34-.3,2.32-.15,1.33-.09a5.5,5.5,0,0,1,1.46,0,1.53,1.53,0,0,1,1.13,1.07,4.82,4.82,0,0,1,.16,1.66c0,1.12-.06,2.31-.1,3.56-.14,5-.25,11-.31,17.58,0,3.31,0,6.78,0,10.38,0,1.8,0,3.63,0,5.49l0,2.81v1.42a4.82,4.82,0,0,1-.1,1.49,1.71,1.71,0,0,1-1.12,1.13,3.89,3.89,0,0,1-1.5.18c-1-.06-1.88-.18-2.81-.27l-2.75-.29a3.71,3.71,0,0,1-1.42-.35,2,2,0,0,1-.89-1.21,12.19,12.19,0,0,1-.16-2.73v-2.63c0-1.73,0-3.43,0-5.08,0-6.62,0-12.58,0-17.58C860,309.94,860,303.74,860,303.74Z" transform="translate(-151.7 -149.54)"/><path class="cls-14" d="M883.32,177.38s-4.76.23-12.46.47-18.33.47-30.08.44-22.39-.32-30.09-.61-12.45-.55-12.45-.55l12.46.3c7.7.16,18.33.32,30.08.36s22.38-.07,30.08-.19Z" transform="translate(-151.7 -149.54)"/><path class="cls-14" d="M877,189.73s-16.06.21-35.86.17-35.86-.34-35.86-.34,16.06-.21,35.86-.16S877,189.73,877,189.73Z" transform="translate(-151.7 -149.54)"/><path class="cls-14" d="M829.18,189.3l-1.12-1.77c-.7-1.09-1.7-2.58-2.84-4.18s-2.23-3-3-4l-1.31-1.64s.6.54,1.5,1.48a36.62,36.62,0,0,1,3.25,3.92,35.61,35.61,0,0,1,2.64,4.34C828.87,188.56,829.18,189.3,829.18,189.3Z" transform="translate(-151.7 -149.54)"/><path class="cls-14" d="M852.46,189.56a15.3,15.3,0,0,1,.81-1.92,25.9,25.9,0,0,1,2.7-4.22c1.2-1.55,2.39-2.86,3.25-3.81l1.41-1.52-1.22,1.68c-.76,1-1.85,2.42-3,3.95a48.32,48.32,0,0,0-2.88,4.05C852.82,188.85,852.46,189.56,852.46,189.56Z" transform="translate(-151.7 -149.54)"/><path class="cls-18" d="M828.18,360.29s-.06-2.39-.11-6.69-.1-10.55-.17-18.26c-.11-15.41-.2-36.7-.15-60.22s.2-44.8.34-60.22c.08-7.7.14-13.94.18-18.25s0-6.69,0-6.69.07,2.38.11,6.69.1,10.55.17,18.25c.11,15.42.2,36.71.16,60.22s-.21,44.81-.35,60.22c-.07,7.71-.13,14-.17,18.26S828.18,360.29,828.18,360.29Z" transform="translate(-151.7 -149.54)"/><path class="cls-18" d="M853.36,361.64s-.5-38.47-.5-85.92.5-85.92.5-85.92.5,38.47.5,85.92S853.36,361.64,853.36,361.64Z" transform="translate(-151.7 -149.54)"/><path class="cls-14" d="M1173.09,177.46s-19.25.14-43,0-43-.5-43-.5,19.26-.14,43,0S1173.09,177.46,1173.09,177.46Z" transform="translate(-151.7 -149.54)"/><path class="cls-14" d="M1164.42,190.13s-3.94.21-10.31.43-15.18.39-24.92.32-18.53-.37-24.9-.67-10.31-.57-10.31-.57l10.32.32c6.37.17,15.17.35,24.9.42s18.53,0,24.9-.07Z" transform="translate(-151.7 -149.54)"/><path class="cls-14" d="M1119.8,190.65a67.73,67.73,0,0,1-8.59-13.25l4.33,6.61Z" transform="translate(-151.7 -149.54)"/><path class="cls-14" d="M1140.88,190.32s1.88-3,4.45-6.49,4.85-6.19,4.85-6.19-1.88,3-4.45,6.48S1140.88,190.32,1140.88,190.32Z" transform="translate(-151.7 -149.54)"/><path class="cls-14" d="M1101.25,195.83s0,.39-.14,1.13-.21,1.84-.32,3.26a98.26,98.26,0,0,0,.2,12c.29,5.07.92,11.14.37,17.88a39.74,39.74,0,0,0-.13,5.14c0,.87.1,1.76.16,2.66a5.09,5.09,0,0,1,0,.71c0,.24-.07.46-.11.69-.09.45-.18.89-.24,1.34,0,.21-.06.46-.07.63s0,.34.18.4a2.76,2.76,0,0,0,.55.15c.22,0,.44.07.67.09a12.74,12.74,0,0,0,2.76.06,26.12,26.12,0,0,1,2.87-.27,17,17,0,0,0,2.81.09.53.53,0,0,0,.43-.78,4.72,4.72,0,0,1-.18-.74,6.61,6.61,0,0,1,0-.75c0-1,0-1.91,0-2.86,0-1.89,0-3.75,0-5.58,0-3.66,0-7.19-.06-10.56,0-6.73,0-12.79-.06-17.88,0-1.27,0-2.48,0-3.63v-1.67c0-.52.09-1.14-.42-1.28A6.83,6.83,0,0,0,1109,196h-3.73l-4.42,0,4.42-.06,2.37,0,1.36,0a6.84,6.84,0,0,1,1.48.06.72.72,0,0,1,.52.62,7.4,7.4,0,0,1,0,.81l0,1.67c0,1.15,0,2.36.05,3.63.07,5.09.15,11.15.24,17.88,0,3.36.07,6.89.11,10.56q0,2.74.06,5.58c0,1,0,1.9,0,2.86a3.19,3.19,0,0,0,.19,1.34,1.06,1.06,0,0,1,0,.9,1.27,1.27,0,0,1-.74.52,16.69,16.69,0,0,1-3-.08,24.93,24.93,0,0,0-2.81.27,14.32,14.32,0,0,1-2.86-.07l-.71-.1-.36-.09a2.26,2.26,0,0,1-.41-.15.73.73,0,0,1-.35-.76,5.09,5.09,0,0,1,.08-.73c.07-.47.16-.91.24-1.36,0-.22.08-.44.11-.65a4.87,4.87,0,0,0,0-.63c-.06-.9-.11-1.79-.14-2.67a38.61,38.61,0,0,1,.16-5.19c.59-6.7,0-12.76-.2-17.84a93.83,93.83,0,0,1,0-12.05c.12-1.42.24-2.52.36-3.26Z" transform="translate(-151.7 -149.54)"/><path class="cls-14" d="M1125,195.47s-.09.4-.22,1.16-.3,1.9-.42,3.37c-.26,2.94-.18,7.2-.17,12.48s0,11.55,0,18.52c0,1.74,0,3.53,0,5.35v2.77c0,.9,0,1.93.65,2.38a6.34,6.34,0,0,0,2.69.34l2.91.07,3,.07a4.3,4.3,0,0,0,2.73-.43c.69-.56.68-1.63.68-2.6l0-3c0-2,0-3.89.05-5.78,0-3.8.07-7.45.1-10.94.08-7,.16-13.25.22-18.52,0-1.32,0-2.57,0-3.76,0-.58,0-1.2-.5-1.46a3.39,3.39,0,0,0-1.55-.22c-2.09,0-3.89,0-5.37.11-2.94.16-4.56.36-4.56.36s1.62-.23,4.56-.44c1.47-.1,3.28-.18,5.37-.19a3.52,3.52,0,0,1,1.64.23,1.08,1.08,0,0,1,.54.71,3.45,3.45,0,0,1,.07.9v3.76c0,5.27,0,11.55,0,18.52,0,3.49,0,7.15,0,10.94q0,2.85,0,5.79c0,1,0,2,0,3a8,8,0,0,1-.09,1.53,2.39,2.39,0,0,1-.77,1.45,2.9,2.9,0,0,1-1.54.54c-.53,0-1,0-1.52,0l-3-.08-2.92-.08-1.44,0a2.83,2.83,0,0,1-1.49-.38,1.9,1.9,0,0,1-.79-1.34,8,8,0,0,1-.07-1.45c0-.93,0-1.85,0-2.76,0-1.82,0-3.61,0-5.35.07-7,.12-13.25.17-18.52s0-9.55.34-12.49c.15-1.47.33-2.6.48-3.36S1125,195.47,1125,195.47Z" transform="translate(-151.7 -149.54)"/><path class="cls-14" d="M1150,196.13s.11,1.58.06,4.45-.26,7,0,12.1c.07,2.55.14,5.35.22,8.36s0,6.22,0,9.61c0,1.69-.07,3.42-.06,5.18,0,.88,0,1.77.07,2.67a9.18,9.18,0,0,1,0,1.4,4.26,4.26,0,0,0-.12,1.27c.05.33.46.52.88.68a9,9,0,0,0,1.31.35l.69.14c.1,0-.21,0,0,0h.28l1.41,0c.95,0,1.91.06,2.86.05a2.34,2.34,0,0,0,2.29-1,6.13,6.13,0,0,0,.4-2.73c0-1,0-1.92,0-2.87q0-2.85.09-5.61c.06-3.68.11-7.23.17-10.61.12-6.76.23-12.85.32-18,0-1.28,0-2.49.08-3.65a4.3,4.3,0,0,0-.17-1.62,1.35,1.35,0,0,0-1.12-.86,7,7,0,0,0-1.45,0l-1.36.09-2.37.16-4.43.3,4.42-.37,2.37-.2,1.36-.12a7.25,7.25,0,0,1,1.48,0,1.48,1.48,0,0,1,1.26,1,4.37,4.37,0,0,1,.21,1.69c0,1.15,0,2.37,0,3.64,0,5.12-.09,11.21-.15,18,0,3.38-.08,6.93-.12,10.6,0,1.84,0,3.72-.06,5.61,0,1,0,1.91,0,2.87a6.49,6.49,0,0,1-.46,3,2.25,2.25,0,0,1-1.21,1,4.48,4.48,0,0,1-1.51.23c-1,0-1.93,0-2.88-.05l-1.42-.06h-.2c-.07,0-.17,0-.19-.13a.28.28,0,0,0,0-.11c0,.07.06-.17-.08.14l0,0,0,0a.31.31,0,0,0,.1.05h.05l0,0-.68-.13a9.39,9.39,0,0,1-1.38-.38,3.27,3.27,0,0,1-.68-.33,1.08,1.08,0,0,1-.49-.68,3.9,3.9,0,0,1,.12-1.45,12,12,0,0,0,0-1.32c0-.9-.06-1.8-.06-2.69,0-1.77,0-3.5.09-5.19.07-3.38.11-6.59.11-9.6s-.08-5.8-.12-8.35c-.16-5.12.13-9.26.22-12.12S1150,196.13,1150,196.13Z" transform="translate(-151.7 -149.54)"/><path class="cls-14" d="M1100.1,304.41s.16,1.53.44,4.3.68,6.79,1,11.76a118.7,118.7,0,0,1-.14,17.5c-.15,1.65-.35,3.32-.61,5a22.46,22.46,0,0,0-.29,2.57A4.33,4.33,0,0,0,1101,348a3.77,3.77,0,0,0,2,1.47,12,12,0,0,0,2.64.52,11.34,11.34,0,0,0,2.73,0,3,3,0,0,0,2.2-1.24,5,5,0,0,0,.42-2.63c0-.93,0-1.87,0-2.79q0-2.77,0-5.46c0-3.59.05-7,.07-10.33.06-6.59.12-12.52.16-17.5,0-1.24,0-2.43,0-3.55a3.1,3.1,0,0,0-1-2.76,4,4,0,0,0-2.63-.35l-2.3.31-4.28.59,4.27-.67,2.29-.35a4.14,4.14,0,0,1,2.73.34,2.23,2.23,0,0,1,.93,1.25,5.6,5.6,0,0,1,.22,1.64c0,1.12,0,2.31,0,3.55,0,5,0,10.91,0,17.5,0,3.29,0,6.74,0,10.33,0,1.79,0,3.61,0,5.46,0,.93,0,1.86,0,2.8a5.28,5.28,0,0,1-.5,2.88,3.43,3.43,0,0,1-2.55,1.47,10.87,10.87,0,0,1-2.85,0,11.87,11.87,0,0,1-2.75-.55,4.21,4.21,0,0,1-2.26-1.68,4.76,4.76,0,0,1-.63-2.68,20.12,20.12,0,0,1,.31-2.63c.26-1.69.47-3.36.63-5a121.63,121.63,0,0,0,.31-17.45c-.22-5-.56-9-.79-11.76S1100.1,304.41,1100.1,304.41Z" transform="translate(-151.7 -149.54)"/><path class="cls-14" d="M1124.84,304.77s.06,1.55.17,4.36.19,6.86.18,11.87-.11,11-.44,17.62c-.1,1.66-.19,3.35-.29,5.08a10.51,10.51,0,0,0,.12,2.57,3.78,3.78,0,0,0,1.17,2.18,5.23,5.23,0,0,0,2.37,1,27,27,0,0,0,2.72.38,5.53,5.53,0,0,0,2.65-.31,2.92,2.92,0,0,0,1.76-1.84,15.43,15.43,0,0,0,.34-2.77c.08-.94.16-1.88.24-2.8.15-1.86.31-3.69.46-5.49.3-3.59.59-7.06.87-10.36a88.56,88.56,0,0,0,.13-17.56c-.07-.62-.15-1.22-.24-1.81a12.33,12.33,0,0,0-.33-1.69,2.87,2.87,0,0,0-.8-1.36,2.41,2.41,0,0,0-1.38-.51,20,20,0,0,0-2.75.16l-2.33.21-4.33.38,4.33-.46,2.32-.25a21.22,21.22,0,0,1,2.78-.2,2.51,2.51,0,0,1,1.47.54,2.88,2.88,0,0,1,.88,1.42,10.71,10.71,0,0,1,.36,1.72c.11.59.19,1.2.27,1.82a86.51,86.51,0,0,1,0,17.62c-.26,3.3-.53,6.77-.82,10.37-.14,1.8-.29,3.63-.44,5.49-.08.92-.15,1.86-.23,2.8a15.46,15.46,0,0,1-.37,2.88,3.36,3.36,0,0,1-2,2.15,6.21,6.21,0,0,1-2.88.35c-1-.09-1.86-.23-2.78-.41a5.49,5.49,0,0,1-2.58-1.13,4.22,4.22,0,0,1-1.32-2.45,11,11,0,0,1-.11-2.68c.11-1.73.21-3.43.32-5.08.37-6.62.55-12.59.61-17.6s0-9.07,0-11.87S1124.84,304.77,1124.84,304.77Z" transform="translate(-151.7 -149.54)"/><path class="cls-14" d="M1150.05,304.9s0,1.51,0,4.24,0,6.69,0,11.57-.2,10.71-.48,17.16c-.07,1.62-.15,3.27-.23,5,0,.85-.09,1.7-.14,2.56a10.16,10.16,0,0,0,0,2.53,1.45,1.45,0,0,0,.63.91,2.48,2.48,0,0,0,1.16.32c.85,0,1.77-.08,2.67-.11l2.74-.15a4.43,4.43,0,0,0,2.51-.62,3.52,3.52,0,0,0,1-2.32c.13-.91.27-1.81.4-2.71.24-1.79.45-3.57.61-5.31.34-3.49.52-6.88.58-10.1a132.59,132.59,0,0,0-.81-17.11c-.16-1.21-.25-2.38-.47-3.44a3.88,3.88,0,0,0-1.5-2.56,5.25,5.25,0,0,0-2.51-.82,12.86,12.86,0,0,0-2.26,0,15.81,15.81,0,0,1-3.14.08,4.53,4.53,0,0,1-1.07-.22,4.71,4.71,0,0,0,1.07.2,16,16,0,0,0,3.14-.14,11.86,11.86,0,0,1,2.27-.07,5.31,5.31,0,0,1,2.59.8,4.07,4.07,0,0,1,1.61,2.64c.24,1.09.34,2.25.52,3.46a128.62,128.62,0,0,1,1,17.15c0,3.23-.2,6.63-.52,10.13-.15,1.76-.36,3.54-.6,5.34-.13.9-.26,1.81-.4,2.72a3.93,3.93,0,0,1-1.18,2.64,4.93,4.93,0,0,1-2.79.72l-2.74.14c-.91,0-1.79.14-2.73.1a3,3,0,0,1-1.39-.39,1.94,1.94,0,0,1-.84-1.2,10.46,10.46,0,0,1,0-2.68q.07-1.29.15-2.55c.09-1.69.18-3.34.26-4.95.33-6.45.52-12.27.65-17.15s.17-8.84.19-11.57S1150.05,304.9,1150.05,304.9Z" transform="translate(-151.7 -149.54)"/><path class="cls-14" d="M1068.89,310.28s.13,1.21.31,3.4.38,5.38.42,9.32-.11,8.64-.56,13.82a10.4,10.4,0,0,0,.32,3.88,4.49,4.49,0,0,0,2.49,2.92,9.05,9.05,0,0,0,4.14.41,15.23,15.23,0,0,0,2.15-.28,2.79,2.79,0,0,0,1.71-1,3.77,3.77,0,0,0,.46-2c0-.74,0-1.48,0-2.21,0-1.46,0-2.9,0-4.31,0-2.83,0-5.57.05-8.17,0-5.2.1-9.89.14-13.82a8.09,8.09,0,0,0,0-1.41.86.86,0,0,0-.88-.72l-2.5-.12-4-.19-3.42-.17,3.42.09,4,.11,2.51.08a1.31,1.31,0,0,1,.69.22,1.17,1.17,0,0,1,.39.64,8.1,8.1,0,0,1,.08,1.47c0,3.93,0,8.62,0,13.82v8.17c0,1.42,0,2.86,0,4.32,0,.73,0,1.47,0,2.21a4.12,4.12,0,0,1-.55,2.28,3.18,3.18,0,0,1-2,1.25,14.37,14.37,0,0,1-2.22.29,9.4,9.4,0,0,1-4.37-.46,5,5,0,0,1-2.74-3.22,11,11,0,0,1-.3-4c.5-5.18.72-9.85.73-13.79s-.12-7.11-.25-9.31S1068.89,310.28,1068.89,310.28Z" transform="translate(-151.7 -149.54)"/><path class="cls-14" d="M1044.09,310.39s-.27,4.65-.71,12.18c-.24,3.75-.52,8.23-.83,13.2-.06,1.24-.19,2.54-.21,3.8a2.47,2.47,0,0,0,.56,1.69,3.64,3.64,0,0,0,1.6,1,19.35,19.35,0,0,0,2,.48,10.6,10.6,0,0,0,2,.23,3.65,3.65,0,0,0,3.37-1.71c.59-1.21.46-2.7.57-4.08s.14-2.78.2-4.13c.14-2.71.27-5.32.4-7.81.27-5,.51-9.45.71-13.21a2.92,2.92,0,0,0-.15-1.3,1.19,1.19,0,0,0-.93-.69c-.81-.1-1.63-.05-2.37-.08l-3.84-.07-3.27-.06,3.27,0h3.84c.75,0,1.53-.05,2.41,0a1.42,1.42,0,0,1,1.1.79A3.24,3.24,0,0,1,1054,312c-.15,3.76-.34,8.25-.54,13.22-.11,2.49-.22,5.1-.34,7.81-.06,1.35-.12,2.73-.19,4.13,0,.7-.07,1.41-.1,2.12a5.59,5.59,0,0,1-.51,2.16,3.42,3.42,0,0,1-1.67,1.54,5.06,5.06,0,0,1-2.15.45,10.51,10.51,0,0,1-2.12-.26,18,18,0,0,1-2-.5,4.1,4.1,0,0,1-1.8-1.11,3,3,0,0,1-.66-2c0-1.34.17-2.58.25-3.84.38-5,.71-9.44,1-13.19C1043.72,315,1044.09,310.39,1044.09,310.39Z" transform="translate(-151.7 -149.54)"/><path class="cls-14" d="M1008.55,311l-.38.69a22.29,22.29,0,0,0-1,2,8.68,8.68,0,0,0-.81,3.41,4.89,4.89,0,0,0,1.88,4,4.73,4.73,0,0,0,2.53.7c.94,0,1.93,0,3-.08l6.55-.28,15-.57c.65,0,1.23-.19,1.36-.74a8.34,8.34,0,0,0,0-1.88c0-1.29-.07-2.57-.11-3.83s.14-2.6-.69-3.33a2.47,2.47,0,0,0-1.53-.53,8.13,8.13,0,0,0-1.7.1,113.18,113.18,0,0,1-12.25.86c-3.49.06-6.32-.06-8.27-.16s-3-.22-3-.22l3,.14c2,.06,4.77.12,8.26,0a122.27,122.27,0,0,0,12.19-1,9.56,9.56,0,0,1,1.79-.12,2.88,2.88,0,0,1,1.8.63,2.59,2.59,0,0,1,.79,1.78c0,.64,0,1.25.08,1.88,0,1.25.08,2.53.13,3.83a8.74,8.74,0,0,1-.05,2,1.39,1.39,0,0,1-.75.89,2.77,2.77,0,0,1-1.07.2l-15,.5-6.55.2c-1,0-2,.08-3,0a4.49,4.49,0,0,1-4.56-5,8.59,8.59,0,0,1,.9-3.44,22.24,22.24,0,0,1,1.06-2Z" transform="translate(-151.7 -149.54)"/><path class="cls-14" d="M933.75,310.91s0,.24.06,1.51l.12,2.79c0,.63.05,1.34.08,2.16,0,.41,0,.84,0,1.3s0,1,.36,1.35c-.47.23,2.94.2,8.47.47l9.73.44,5.72.27a29.64,29.64,0,0,0,3,.07,3.82,3.82,0,0,0,2.63-1c.86-.93.68-2.38.67-3.67s0-2.63-.07-3.91a2.63,2.63,0,0,0-.33-1.67c-.33-.39-1-.41-1.58-.44l-3.6-.13c-4.71-.14-8.94-.14-12.5-.06s-6.44.2-8.42.31l-3.09.18,3.08-.26c2-.15,4.86-.35,8.42-.48s7.81-.21,12.52-.11l3.61.1a2.54,2.54,0,0,1,1.91.58,3.06,3.06,0,0,1,.46,2c0,1.28.05,2.58.08,3.91a19.44,19.44,0,0,1,0,2,3.33,3.33,0,0,1-.79,2,4.24,4.24,0,0,1-3,1.17,27.69,27.69,0,0,1-3-.07l-5.71-.31-9.73-.55-6.47-.4a13.84,13.84,0,0,1-1.66-.15c-.36-.11-.44-.28-.37-.2a1.9,1.9,0,0,1-.37-1.41c0-.46,0-.89,0-1.3,0-.82-.06-1.53-.08-2.16,0-1.25-.07-2.15-.09-2.78C933.75,311.15,933.75,310.91,933.75,310.91Z" transform="translate(-151.7 -149.54)"/><path class="cls-14" d="M1026.63,287l-.92-.3c-.6-.19-1.48-.48-2.61-.88-2.26-.8-5.52-2-9.43-3.79a117.7,117.7,0,0,1-13.32-7.07c-2.41-1.48-4.9-3.13-7.4-5-1.27-.89-2.49-1.88-3.85-2.65a6.3,6.3,0,0,0-4.45-1,10,10,0,0,0-4,2.4,35.69,35.69,0,0,1-3.84,2.76c-2.64,1.63-5.32,2.94-7.84,4.25l-13.4,6.88L943.19,289l12.25-6.52,13.32-7c2.5-1.33,5.17-2.65,7.77-4.28a33.53,33.53,0,0,0,3.79-2.73,10.29,10.29,0,0,1,4.22-2.51,6.74,6.74,0,0,1,4.8,1,43.76,43.76,0,0,1,3.89,2.7c2.48,1.81,4.95,3.47,7.35,5a124,124,0,0,0,13.19,7.19c3.88,1.82,7.11,3.1,9.35,3.94,1.12.43,2,.73,2.6.94Z" transform="translate(-151.7 -149.54)"/><path class="cls-18" d="M957.2,322.12s.62,8.79.77,19.64-.24,19.66-.24,19.66-.62-8.79-.76-19.65S957.2,322.12,957.2,322.12Z" transform="translate(-151.7 -149.54)"/><path class="cls-18" d="M1014.27,310.86l0-.79a14.79,14.79,0,0,0-.08-2.27,10.29,10.29,0,0,0-.91-3.41,6.35,6.35,0,0,0-3.22-3.18c-1.55-.7-3.52-1-5.42-2s-3.78-2.12-5.78-3.31l-6.25-3.81-3.3-2a9.83,9.83,0,0,0-3.45-1.5,5.25,5.25,0,0,0-3.48.83c-1.09.63-2.12,1.43-3.18,2.14-2.12,1.43-4.22,2.71-6.28,3.84s-4.06,2.1-6,2.94-3.7,1.54-5.21,2.41a10,10,0,0,0-3.48,3.05,7.23,7.23,0,0,0-1.19,3.29,5.23,5.23,0,0,0,.3,2.21,3.93,3.93,0,0,0,.25.53l.1.18-.11-.17a3.35,3.35,0,0,1-.27-.52,5,5,0,0,1-.42-2.24,7.19,7.19,0,0,1,1.07-3.45,10.37,10.37,0,0,1,3.5-3.31,54.29,54.29,0,0,1,5.18-2.6c1.86-.89,3.82-1.9,5.83-3.06s4.08-2.45,6.16-3.89c1-.7,2-1.51,3.22-2.21a6.23,6.23,0,0,1,4.13-.95,10.6,10.6,0,0,1,3.82,1.63l3.28,2.06,6.2,3.9c2,1.24,3.81,2.49,5.63,3.41s3.7,1.33,5.34,2.14a6.66,6.66,0,0,1,3.28,3.5,10.53,10.53,0,0,1,.79,3.53,17.61,17.61,0,0,1,0,2.28Z" transform="translate(-151.7 -149.54)"/><path class="cls-18" d="M1014.22,360.37s.14-2.16.36-5.64.39-8.3.44-13.62,0-10.13-.19-13.62-.25-5.65-.25-5.65.37,2.14.75,5.62a115.73,115.73,0,0,1,.69,13.66,117,117,0,0,1-.94,13.65C1014.63,358.24,1014.22,360.37,1014.22,360.37Z" transform="translate(-151.7 -149.54)"/><path class="cls-18" d="M1038,361.34s-24.07.67-53.78.88-53.79-.13-53.79-.13,24.07-.66,53.78-.87S1038,361.34,1038,361.34Z" transform="translate(-151.7 -149.54)"/><path class="cls-18" d="M1053.37,380.88s-.1.55-.2,1.61a9.68,9.68,0,0,0,0,1.94,4.84,4.84,0,0,0,1,2.42,3,3,0,0,0,2.85,1.21c.59-.07,1.2-.25,1.86-.38a2.77,2.77,0,0,1,2.11.23,2.42,2.42,0,0,1,1,2.07c0,.79-.09,1.56,0,2.35a6.15,6.15,0,0,0,.58,2.32,3.34,3.34,0,0,0,1.71,1.68,6.59,6.59,0,0,0,2.62.34l2.88,0,6.12,0h1.6a4,4,0,0,0,1.46-.22c.87-.32,1-1.44.94-2.55,0-2.25.07-4.57.11-6.94,0-1.19,0-2.39,0-3.61a9.28,9.28,0,0,1,.18-1.92,3.37,3.37,0,0,1,1.1-1.8,6,6,0,0,1,3.86-1.07c.67,0,1.32.08,1.92.09a6.46,6.46,0,0,0,1.78-.15,2,2,0,0,0,1.28-.86,2.89,2.89,0,0,0,.27-1.64c0-1.31-.07-2.64-.11-4q-.11-4-.23-8a.89.89,0,0,0-.28-.6,1.13,1.13,0,0,0-.64-.2l-2-.06-4-.11-7.88-.24-14.91-.47-13.49-.46-3.11-.11a7.1,7.1,0,0,0-2.84.22,2.19,2.19,0,0,0-1.24,2.08,11.85,11.85,0,0,0,.25,2.67,4.27,4.27,0,0,0,1,2.23,2.42,2.42,0,0,0,2.15.57,7.15,7.15,0,0,1,2.4-.1,2.42,2.42,0,0,1,1.69,1.53,7.5,7.5,0,0,1,.12,4,4.73,4.73,0,0,0,.4,3.19,3.39,3.39,0,0,0,2.12,1.43,8.22,8.22,0,0,0,1.93.24c1,0,1.61-.06,1.61-.06a14.37,14.37,0,0,1-1.61.1,7.75,7.75,0,0,1-2-.19,3.47,3.47,0,0,1-2.22-1.44,4.88,4.88,0,0,1-.5-3.3c.06-.61.16-1.24.17-1.89a5,5,0,0,0-.35-2,2,2,0,0,0-1.48-1.3,7,7,0,0,0-2.28.16,4,4,0,0,1-1.29,0,2.63,2.63,0,0,1-1.21-.64,4.72,4.72,0,0,1-1.2-2.45,12.29,12.29,0,0,1-.3-2.81,3.51,3.51,0,0,1,.36-1.49,2.43,2.43,0,0,1,1.18-1.1,7.36,7.36,0,0,1,3.1-.32l3.11.07,13.49.29,14.91.36,7.89.21,4,.11,2.06.06a2.09,2.09,0,0,1,1.26.41,1.78,1.78,0,0,1,.58,1.19c.06.47,0,.75.06,1.11l0,1,.06,2c0,1.35.07,2.7.1,4s.07,2.66.1,4a3.89,3.89,0,0,1-.42,2.16,2.94,2.94,0,0,1-1.86,1.28,14,14,0,0,1-4,.07,5.13,5.13,0,0,0-3.27.84,2.5,2.5,0,0,0-.81,1.31,7.93,7.93,0,0,0-.17,1.73l-.09,3.61c-.06,2.37-.12,4.69-.18,6.94a7.34,7.34,0,0,1-.19,1.76,2.11,2.11,0,0,1-1.24,1.44,4.53,4.53,0,0,1-1.74.25h-1.6l-6.12,0-2.88,0a7.1,7.1,0,0,1-2.81-.43,3.77,3.77,0,0,1-1.93-1.94,6.79,6.79,0,0,1-.58-2.5c0-.83.09-1.63.07-2.36a2.09,2.09,0,0,0-.77-1.82,2.5,2.5,0,0,0-1.88-.22c-.64.11-1.27.28-1.89.34a3.07,3.07,0,0,1-1.76-.29,3.66,3.66,0,0,1-1.23-1.06,4.82,4.82,0,0,1-.94-2.5,9.45,9.45,0,0,1,0-2C1053.26,381.43,1053.37,380.88,1053.37,380.88Z" transform="translate(-151.7 -149.54)"/><path class="cls-18" d="M1080.49,380.08l-1.12-.14c-.73-.1-1.78-.21-3.07-.34-2.59-.26-6.17-.5-10.12-.53s-7.54.15-10.13.37c-1.3.11-2.35.21-3.08.3l-1.13.12,1.11-.28c.71-.18,1.74-.4,3-.63a54.9,54.9,0,0,1,20.39.15c1.29.26,2.32.5,3,.69Z" transform="translate(-151.7 -149.54)"/><path class="cls-18" d="M1185.34,380.08s-1.39.06-3.9.1-6.16.08-10.66.1c-9,0-21.42,0-35.15-.18s-26.15-.48-35.14-.69l-10.65-.24-3.91-.06s1.39-.06,3.91-.1,6.15-.08,10.65-.1c9,0,21.43,0,35.15.19s26.15.47,35.15.68l10.65.24Z" transform="translate(-151.7 -149.54)"/><path class="cls-18" d="M1178.51,379.8s-.12-1.53-.32-4-.54-5.85-1-9.58c-.12-.92-.21-1.88-.36-2.68s-.52-1.41-1.17-1.51a6.48,6.48,0,0,0-1.11-.07l-1.13,0-2,0c-2.47-.07-4-.16-4-.16s1.53-.16,4-.34l2-.14,1.13-.07a7.67,7.67,0,0,1,1.27,0,2.08,2.08,0,0,1,1.35.77,3.45,3.45,0,0,1,.61,1.36c.21.95.3,1.82.43,2.77a70.44,70.44,0,0,1,.51,9.69C1178.65,378.27,1178.51,379.8,1178.51,379.8Z" transform="translate(-151.7 -149.54)"/><path class="cls-18" d="M1185.34,397l-15.49.18c-9.57.13-22.79.28-37.4.32s-27.83-.06-37.4-.18-15.5-.32-15.5-.32l15.5-.18c9.57-.13,22.79-.28,37.4-.32s27.83.06,37.4.18S1185.34,397,1185.34,397Z" transform="translate(-151.7 -149.54)"/><path class="cls-19" d="M1185.59,396" transform="translate(-151.7 -149.54)"/><path class="cls-18" d="M1184.81,379.79a1.28,1.28,0,0,1,.76-.29,2.11,2.11,0,0,1,1.89,1.22,6.9,6.9,0,0,1,.34,3.32c0,1.21-.12,2.55-.23,3.94s-.25,2.73-.4,3.94a24.19,24.19,0,0,1-.5,3.23,2.28,2.28,0,0,1-1.48,1.67,1.32,1.32,0,0,1-.81,0,1.36,1.36,0,0,0,.75-.14,2.1,2.1,0,0,0,1.06-1.65c.12-.85.07-2,.14-3.18s.13-2.55.24-4,.25-2.72.39-3.93a7.36,7.36,0,0,0,0-3.06,1.87,1.87,0,0,0-1.43-1.25A1.28,1.28,0,0,0,1184.81,379.79Z" transform="translate(-151.7 -149.54)"/><path class="cls-18" d="M1040.05,370.13l-4.39.31c-2.83.2-6.93.46-12,.73-10.13.55-24.14,1.08-39.62,1.16s-29.5-.32-39.63-.77c-5.07-.22-9.17-.43-12-.6l-4.4-.27,16.41.37c10.14.2,24.14.35,39.61.27s29.47-.36,39.61-.66Z" transform="translate(-151.7 -149.54)"/><path class="cls-18" d="M1065.58,397.18s-34.88.49-77.91.48-77.91-.52-77.91-.52,34.88-.49,77.91-.48S1065.58,397.18,1065.58,397.18Z" transform="translate(-151.7 -149.54)"/><path class="cls-18" d="M1059,388.21l-5.8,0-15.82.15c-13.36.13-31.82.29-52.2.33s-38.84,0-52.2-.17l-15.82-.2c-3.74,0-5.81-.13-5.81-.13l5.81,0,15.82-.15c13.36-.13,31.81-.29,52.2-.33s38.84.05,52.2.17l15.82.19C1056.89,388.13,1059,388.21,1059,388.21Z" transform="translate(-151.7 -149.54)"/><path class="cls-18" d="M1049.51,379.7s-7.08.38-18.52.77-27.25.76-44.72.74-33.28-.46-44.72-.9-18.51-.84-18.51-.84l18.52.34c11.44.19,27.25.36,44.71.4s33.27-.09,44.71-.24Z" transform="translate(-151.7 -149.54)"/><path class="cls-18" d="M939.48,288.66s-13.6.5-30.37.5-30.38-.5-30.38-.5,13.6-.5,30.38-.5S939.48,288.66,939.48,288.66Z" transform="translate(-151.7 -149.54)"/><path class="cls-18" d="M1092.64,286.81s-3.66.48-9.6,1.07-14.16,1.24-23.26,1.57-17.35.26-23.31.1-9.65-.37-9.65-.37l9.65-.13c6-.09,14.19-.28,23.28-.6s17.3-.73,23.25-1.07Z" transform="translate(-151.7 -149.54)"/><path class="cls-18" d="M1042.45,216s-25.68.5-57.34.5-57.34-.5-57.34-.5,25.67-.5,57.34-.5S1042.45,216,1042.45,216Z" transform="translate(-151.7 -149.54)"/><path class="cls-18" d="M1025.77,236.88s-18.59.32-41.52.09-41.51-.92-41.51-.92,18.59-.31,41.52-.08S1025.77,236.88,1025.77,236.88Z" transform="translate(-151.7 -149.54)"/></g></svg>