<svg xmlns="http://www.w3.org/2000/svg" xmlns:xlink="http://www.w3.org/1999/xlink" viewBox="0 0 452.36 486.47"><defs><style>.cls-1{fill:#c3c3c3;}.cls-2{fill:#fff;stroke-width:0.25px;}.cls-13,.cls-2{stroke:#000;}.cls-10,.cls-13,.cls-2{stroke-miterlimit:10;}.cls-3{fill:#eaae81;}.cls-4{fill:#aa8972;}.cls-5{fill:#1100d4;}.cls-6{fill:#214756;}.cls-7{fill:#6b0303;}.cls-8{fill:#232323;}.cls-9{opacity:0.71;}.cls-10,.cls-13{fill:none;}.cls-10{stroke:#223d87;}.cls-11{fill:#d1d078;}.cls-12{fill:#223d87;opacity:0.64;}</style></defs><title>persona-compu</title><g id="Comp_clo" data-name="Comp clo"><path class="cls-1" d="M952.44,530v-.15l43.74-95.09,2.72-5.54,1.94-6.63s.43-5.55-3-5.49h0l-3.42.05-.83-.31L859,412.7l-6.41-.49h0s-8.76-.45-11.17.71h0s-3.76.66-4.82,5.8h0l-1.7,3.56-8.73,21.13L806,492.6l-11.59,28.28-4.62,11.26-6.43-2,2.82,10.52s-.42,1.73.36,1.68h0s5.9.9,6.44.81a53.2,53.2,0,0,0,7.2-.2h0l8.78-.35,25.8-1,77.26-3,32.41-1.26h0c3.38.26,5.93-2.17,7.09-5.15C951.79,531.35,952.42,530.9,952.44,530Z" transform="translate(-548.69 -175.59)"/><path class="cls-2" d="M952.44,530a1.37,1.37,0,0,1-.07.42,4.6,4.6,0,0,1-.63,1.17c-.31.51-.52,1.26-1,2.06a8.17,8.17,0,0,1-2.25,2.45,6.38,6.38,0,0,1-4.24,1.15l-5.67.22-15.2.6L800.14,543v-.06a13.72,13.72,0,0,0,1.66,0l-.63,0-.61,0-.38,0h0s0,.06,0-.06h.17l.21,0,.94-.09.26,0h.2c0,.12,0,0-.06.07l-.55.05c-.76.07-1.6.16-2.5.22a53.58,53.58,0,0,1-5.86.09h0c2.11.06,1.53.05-.43,0-1-.08-2.29-.26-3.78-.47l-1.15-.17-.59-.09-.33,0-.17,0h.25s.07,0,.11,0a.21.21,0,0,0-.08,0l-.31,0a.48.48,0,0,1-.43-.44,3.33,3.33,0,0,1,.07-1.26,2.34,2.34,0,0,0,0,1.38,1.78,1.78,0,0,1-.06-.69,4,4,0,0,1,.09-.62,3.72,3.72,0,0,0-.17-.75c-.6-2.26-1.61-6-2.65-9.9.1.38.17.62.21.76s0,.16,0,.1l-.11-.41-.11-.44c.14,0,.37.11.52.16l5.93,1.87c2.85-7,19.48-47.47,43.51-106,1.61-4.16,3.66-8.1,3.28-7.37l.1,0-.37,1.79-.09.42V421l-.11,0h0v0l0-.1,0-.21.17-.8A17.62,17.62,0,0,1,837,417a7.23,7.23,0,0,1,2.49-3.28,5.37,5.37,0,0,1,1.84-.86h0c0-.09,0,.12,0,.1h0l0,0,0,0-.07,0-.06,0,0,0,.07,0,0,0,0,0h0l0-.1,0,.1-1,.5,0,0c-.09-.19,0-.06,0-.1h0l.06,0,.13-.06.24-.12.49-.24a7.31,7.31,0,0,1,1.94-.53,30,30,0,0,1,3.35-.28c2-.07,3.37,0,4.35,0l1.56,0h-.08s.2,0,0,0l3.8.28c1.43.11,2.85.24,4.27.26l8.39.26,16.08.5,29.24.9L960,415.78l33.6,1.05c.91.35.86.31.83.31l3.14-.05h.26s0,0,0,0h0s0,0,0,0v0h-1.51c0-.08,0,0,0,0h0l1.49,0a2.49,2.49,0,0,1,2.21,1.33,6.08,6.08,0,0,1,.68,2.23,9.15,9.15,0,0,1,.05,2l-1.45,5c-.57,2.06-.64,1.9-.48,1.62-2.62,5.19-4.87,10.23-7.07,15l-6.22,13.53c-3.92,8.53-7.4,16.1-10.49,22.8L961,511.2c-6.72,14.61-8.59,18.66-8.59,18.66v0s1.87-4.05,8.58-18.67l14.1-30.65,10.48-22.8,6.22-13.53c2.19-4.75,4.45-9.79,7.06-15-.16.27-.1.44.47-1.62l1.45-5a8.51,8.51,0,0,0,0-2,6.16,6.16,0,0,0-.67-2.21,2.46,2.46,0,0,0-2.18-1.31l-1.49,0h0s0,0,0,0h1.51v0c0-.08-.07,0,0,0h0c0,.08,0,0,0,0h-.26l-3.15.05-.83-.31-33.59-1-45.86-1.4-29.24-.9-16.08-.5-8.38-.26c-1.42,0-2.84-.15-4.28-.26l-3.72-.28c.19-.09,0,0,0,0s0,0,.08,0l-.1,0H852l-1.15,0c-1,0-2.38-.06-4.33,0a29.41,29.41,0,0,0-3.34.28,7.08,7.08,0,0,0-1.92.53l-.48.23-.25.12-.12.06-.07,0h0s0,.1-.05-.09h0l1-.5,0,.1c-.07-.2,0-.06,0-.1h0l0,0-.06,0-.05,0,.06,0,.07,0,.05,0h0s.06.19,0,.1h0a5.1,5.1,0,0,0-1.79.85,7,7,0,0,0-2.46,3.23,17.86,17.86,0,0,0-.73,2.81l-.16.8,0,.21,0,.1v0h0s-.2,0-.11,0h0v-.05l.09-.43c.11-.57.23-1.16.36-1.78l.1,0c.39-.73-1.67,3.21-3.28,7.38L789.77,532.19l-6-1.9-.4-.12.08.32.11.42c0,.05,0,0,0-.1l-.18-.64c1,3.81,2,7.54,2.61,9.77a3,3,0,0,1,.17.78,3.94,3.94,0,0,0-.08.61,1.71,1.71,0,0,0,0,.67c.09.17-.22-.19,0-1.37a3.38,3.38,0,0,0-.08,1.26c0,.2.16.39.37.38s.2,0,.3,0h.08s0,0-.06,0h-.13c-.15,0,0,0,.07,0l.28,0,.59.09,1.15.16c1.49.21,2.8.4,3.77.48,2,.06,2.55.07.43,0h0a53.35,53.35,0,0,0,5.85-.09c.9-.06,1.74-.15,2.5-.22l.56,0s0-.06.07,0h-.2l-.26,0-.94.08-.22,0h-.16c0-.11,0,0,0-.06h.4l.61,0,.63,0a14.51,14.51,0,0,0-1.65.12v-.06l123.22-4.8,15.2-.59,5.67-.22a6.4,6.4,0,0,0,4.23-1.14,8.15,8.15,0,0,0,2.25-2.45c.51-.8.72-1.55,1-2.06a4.6,4.6,0,0,0,.63-1.17A1.37,1.37,0,0,0,952.44,530Z" transform="translate(-548.69 -175.59)"/><path class="cls-1" d="M781.19,541.21s-16.09-1.82-23.51-5.27-.19-.09-.19-.09-19.31-6.31-20.72-6.32h0s-14.36-3.37-16.54-3.37h0l-9.5-1.55s-5.09-.83-5.44-4.39h0s-.1-2.7,2-3.17h0s6.84-.95,9.12-.92h0c3,0,6,0,9,.19l1.2.11a6.73,6.73,0,0,0,2.93-.74c1.41-.46,2.8-1,4.19-1.48l2.33-.86.74-1.67L800.06,507l-13.22,32.24s-1.5,2.33-5.83,2" transform="translate(-548.69 -175.59)"/></g><g id="Colores"><path class="cls-3" d="M652.41,265.79c.07-.18,0-.32-.06-.5a.87.87,0,0,0-.46-.63c-.36-.25-.67-.62-1.1-.61a1.79,1.79,0,0,0-.67.17c-.63.25-1.21.66-1.81,1a4.46,4.46,0,0,1-2,.53,3.52,3.52,0,0,1-2.53-1.69,12.22,12.22,0,0,1-1.79-3.41c-.26-.77-.45-1.56-.64-2.35l-.92-3.94a11,11,0,0,1-.29-2.21c0-.16,0-.32,0-.48s0-.23-.05-.35a13.78,13.78,0,0,0-.16-1.44,2,2,0,0,1-.13-.62c0-.28.06-.55.06-.83a2.74,2.74,0,0,0,0-.5c0-.14-.06-.28-.09-.42a22.55,22.55,0,0,1-.07-4.35,9.41,9.41,0,0,1,.91-4.4,5.42,5.42,0,0,1,1-1.39,1.44,1.44,0,0,1,.33-.28c.1-.06.21-.1.31-.15.25-.15.43-.39.68-.53a1.59,1.59,0,0,1,.41-.16,3.61,3.61,0,0,1,1.8-.25,2.23,2.23,0,0,1,.58.24,1.82,1.82,0,0,0,.7.13,8,8,0,0,0,2,0,.36.36,0,0,0,.21-.08.48.48,0,0,0,.12-.33l0-.94a2.09,2.09,0,0,0-.06-.79l-.13-.33a4.29,4.29,0,0,1,0-1.19,4.87,4.87,0,0,0-.2-.92,10.24,10.24,0,0,1-.4-2.8,7.88,7.88,0,0,1,.09-1.09,8.12,8.12,0,0,1,.61-2.69,3.4,3.4,0,0,1,1.12-1.26,6.32,6.32,0,0,1,.89-.47c.17-.08.29-.17.46-.25a9.12,9.12,0,0,0,1.38-.82,6.34,6.34,0,0,0,2.23-4.1,5,5,0,0,0,.08-1.09c0-.35-.08-.7-.08-1a5.22,5.22,0,0,0,0-1.37,16.5,16.5,0,0,1-.19-4.39,2.8,2.8,0,0,1,0-.5,7,7,0,0,1,.37-1.06,2.63,2.63,0,0,0,.12-.69.53.53,0,0,1,0-.18.38.38,0,0,1,.1-.12,3,3,0,0,0,.6-.95,6.1,6.1,0,0,1,.87-1.15,3.6,3.6,0,0,1,.37-.41,3,3,0,0,1,.46-.34l1.13-.76c.21-.15.43-.29.65-.42a12.2,12.2,0,0,1,2.25-1c.58-.19,1.15-.37,1.73-.52l.67-.17a13.1,13.1,0,0,1,2-.15c1,0,2.06-.07,3.09-.13,1.7-.11,3.41,0,5.11,0a11,11,0,0,1,1.15,0c.35,0,.7.13,1.06.19a11.44,11.44,0,0,0,2,.21,5.26,5.26,0,0,1,.89.07,6.17,6.17,0,0,1,.61.19,12.31,12.31,0,0,0,2.08.48,9.26,9.26,0,0,1,1.68.65c.42.16.84.31,1.25.49s1,.49,1.52.68a3.45,3.45,0,0,0,1.64.25,5,5,0,0,0,1.62-.6l.23-.14a2.65,2.65,0,0,0,.21-.26,3.68,3.68,0,0,1,.61-.57l.92-.71a8.73,8.73,0,0,1,2.59-1.38,5.08,5.08,0,0,1,.84-.19,7.54,7.54,0,0,0,.83-.06c.2,0,.39-.11.58-.16a4.42,4.42,0,0,1,.73-.1,15.4,15.4,0,0,1,3.59-.05l.94.14c.4,0,.81.05,1.21.07s.92.11,1.38.18l1.28.2a30.47,30.47,0,0,0,7.45.29.56.56,0,0,1,.34,0c.22.08.31.33.38.56a15.48,15.48,0,0,0,1.18,2.55l.73,1.36c.2.38.4.75.61,1.12.3.53.53,1.08.8,1.63l.26.51.12.25a13.44,13.44,0,0,1,.37,1.42c.05.18.12.35.18.52.17.45.32.91.47,1.38l.27.79.33,1,.2.61c.1.3.23.63.52.73a1.66,1.66,0,0,0,.92.72,2.67,2.67,0,0,1,.26.09,1.14,1.14,0,0,1,.36.33,2.94,2.94,0,0,1,.42.64,5.31,5.31,0,0,1,.2.56l.34,1.07a6.56,6.56,0,0,1,.23.84,2.4,2.4,0,0,0,.11.48c0,.09.08.16.11.25a3.75,3.75,0,0,1,.09.75,3.06,3.06,0,0,0,.13.43c.21.67.22,1.39.48,2a8,8,0,0,1,.4,2.84,2.19,2.19,0,0,0,0,.51c0,.1.06.2.09.3.1.4,0,.84.14,1.23,0,.09.08.18.11.27a2.34,2.34,0,0,1,0,.53,3.65,3.65,0,0,0,.07.46l.28,1.25a2.48,2.48,0,0,1,0,.47,1.63,1.63,0,0,0,0,.38c0,.09.06.18.09.28a2.19,2.19,0,0,1,0,.36c0,.8.48,1.44.44,2.24.14-.14,0,0,.16,0a2.84,2.84,0,0,0,2.28.38,1.23,1.23,0,0,1,.48-.13.8.8,0,0,1,.26.09,3.91,3.91,0,0,1,1.81,1.35c.26.45.42,1,.67,1.42.12.23.29.44.41.68a3.81,3.81,0,0,1,.27.66l.23.68a5.33,5.33,0,0,1,.33,1.42c0,.28,0,.56,0,.84s.14.64.16,1a3.9,3.9,0,0,1-.06.9l-.22,1.45c0,.38,0,.82-.06,1.19l-.31,1.64-1,5.47a6,6,0,0,1-.18.76c-.09.28-.23.54-.31.82a13.82,13.82,0,0,0-.21,1.59,9.78,9.78,0,0,0-.4,2.12,7.53,7.53,0,0,1-.41,1.89,4.32,4.32,0,0,1-.17.71,5,5,0,0,1-.56,1.08,3.06,3.06,0,0,1-.48.64,3.15,3.15,0,0,1-.76.48,5.68,5.68,0,0,1-1.28.48,1.93,1.93,0,0,1-1.34-.14c-1-.56-1.2-2.15-2.28-2.61a2.2,2.2,0,0,0-1-.13,1.21,1.21,0,0,0-.33.07.81.81,0,0,0-.24.17,3.32,3.32,0,0,0-.85,1.24,7,7,0,0,0-.21.75c-.35,1.46-.58,2.93-.83,4.41,0,.17,0,.46,0,.63a6.75,6.75,0,0,0-.13,3.12c.12.39-.14.88-.19,1.28a5.49,5.49,0,0,0,0,.81l-.09,7.11q0,.94,0,1.89l0,1.29,0,.73-.14,4.22c0,.71-.09,1.42-.06,2.13a6.49,6.49,0,0,1,0,1.08,5.5,5.5,0,0,1-.34,1.31,3.52,3.52,0,0,0-.33,1.06,4.79,4.79,0,0,0,.15,1.19,23.47,23.47,0,0,1,.35,4c.07,2.55,0,5.11-.08,7.66,0,.34,0,.69,0,1a1.94,1.94,0,0,1,0,.54,3.2,3.2,0,0,1-.27.52,4.64,4.64,0,0,0-.27,1.58,9.12,9.12,0,0,1-.22,1.16c-.17.74-.37,1.47-.58,2.19s-.4,1.3-.63,1.94a29.06,29.06,0,0,1-3.35,6.48,24.89,24.89,0,0,1-12.5,9.71,28.27,28.27,0,0,1-4.62,1,41.59,41.59,0,0,1-11.2.09,10.74,10.74,0,0,1-4.14-.26l-2.21-.45c-.83-.16-1.66-.33-2.48-.56a21.13,21.13,0,0,1-4.85-2.12,56.16,56.16,0,0,1-9.55-7.52s-8-7.54-8.36-10.79c0,0-1.64-5.47-.09-8.33a10.91,10.91,0,0,1,1-1.88c1.41-2,3.72-5.06,3.79-5.4,0,0,.83-4.77.48-5.81,0,0-.3-9-.78-9.63,0,0-2.51-11.76-2.58-12.69Z" transform="translate(-548.69 -175.59)"/><path class="cls-3" d="M747.35,490.93s1,1.54,8.74-.7c0,0,5.46-1.75,9-1.73a58.86,58.86,0,0,1,12.11,2.05,68.31,68.31,0,0,0,10,.27s4.15.11,6.32,1.78a40.55,40.55,0,0,1,5.55,4.94s3.51,3.72,1,7l-2.13-.57L792.6,498s7,7.19,6.3,8.3c0,0,.81,1.52.59,2.07l-1.71,4.16a2.71,2.71,0,0,1-2.4,0,9,9,0,0,1-1.56-1.93h0s-1.46-2.49-2.57-2.23h0s-8.91-7.74-10.44-8.77c0,0,11.64,9,12.1,11a9,9,0,0,1,1.22,7.59s-1,3.13-4.43,1.55h0a13.91,13.91,0,0,1-4.37-4c-1.06-1.35-2.14-2.63-2.24-2.78-4-5.53.17.24.17.24A1,1,0,0,1,783,513l-.09-.13a2.48,2.48,0,0,0-.38-.52l-.14-.12-.42-.37s-4.91-4-8.16-4.51h0s-6.16-1.34-10.08,1.36a37.79,37.79,0,0,1,6,2.78h0l10.38,5.9s3.73,1.32,2.5,3.71h0s-3.31,4-7.75,2.6h0s-3.78-.74-10.06-5.75h0s-3.88-1.83-6.53-.94h0s-14,3-20.57,1.91h0s-1.31-6.92-.18-9.75h0a41.22,41.22,0,0,1,2.84-7.65,58.23,58.23,0,0,1,5.26-8.37h0Z" transform="translate(-548.69 -175.59)"/><path class="cls-4" d="M766,615.31c1.12,0,2.55.14,3.68.16l2,0,4,.1s35.94-1.51,38.16-2.45h0s6-.41,10.25-1.13c4.79-.83,4-.53,4-.53a38.32,38.32,0,0,1,5-.69,12,12,0,0,0,4.65-1.39c1.4-.62,1.58-1,3.29-1.82h0A48.75,48.75,0,0,0,856.4,603h0s13.38-6.57,15.05-8h0a21.27,21.27,0,0,0,7.06-11.73h0s4.46-21.2,2.68-24.23h0a22.61,22.61,0,0,0-1.28-6,60.68,60.68,0,0,0-5.78-11.42l-1.62-1.7-64.29,2.58s-4.72.22-6.16.26h0s-4,0-5.33.28h0s-3,0-4-.06h0c-1-.13-2.08-.2-3.12-.34l-.74-.1-2.62-.35a2.63,2.63,0,0,1,0-2.11,1.83,1.83,0,0,0-.77.3,6.78,6.78,0,0,1-3.82.85l-7.66-1.1s-15.89-3.56-16.36-4.29h0l-10.91,1.4-17.92,1.72s-17.57.71-17.83.52h0s-19.64-.78-20-1.48h0s-15.83-2.72-16.85-3.44h0s-12.91-3.85-13.53-4.53h0s-13.14-4.69-14.69-4.92h0s-7-1.79-10.4-1.8h0s-6.52-.16-7.57.14h0s-6.19,1-7,1.63l-1.2-.41.25-1.22s-48.24-2.68-50.1-.26c0,0-12,4.73-18.38,21h0s-4.89,13.51.4,26.32h0s1.53,6.77,9.89,14.55a66.91,66.91,0,0,0,11.81,8.29h0s6.59,4.11,11.52,4.38h0a49.53,49.53,0,0,1,7,1.45h0l8.26,3.79s9.49,5.83,14.77,6l3,.51s7.09.53,9.06,1.51h0s17.35,6.8,23,9.86h0s35,16.27,37.31,16.22h0s18.34,7.1,37.29,6h0s15.43-.62,23.93,3.52h0s0,1.12,1.29.55c0,0,1.51-3,2.33-2.69h0l1-.09s6.7-24.49,10.86-28.85h0" transform="translate(-548.69 -175.59)"/><path class="cls-5" d="M749.16,490.24" transform="translate(-548.69 -175.59)"/><path class="cls-6" d="M751.15,491.23a.75.75,0,0,0,.42,0c.85-.14,1.71-.27,2.54-.49a13.12,13.12,0,0,0,2-.53s8-2.13,8.86-1.73h0s8.48.9,9.66,1.42a29.1,29.1,0,0,0,9.17,1h0l-3.9-23.41s7.26,10.12,12,12.74h0l13.3,9.71,1.38,1.26,5.53-13.49,14.18-34.57-1.1-1.18s-7.3-12.24-7.3-14.92h0l-3.54-11.53-6.16-15.27s-2.7-8.61-2.87-11.63h0a55.7,55.7,0,0,1,0-5.89h0s0-6.25-.09-7.81.09-1.08.09-1.08-.33-13-.65-13.3h0s-1.83-13.75-2.14-13.78h0s-2.74-13.71-3.67-14.18h0s-2.38-6.17-3.48-7.32h0s-4.17-6.08-6.22-7.45h0s-7.61-6.52-12.7-8h0s-12.4-4.88-16.74-5.24h0l-12.58-2.82L732,297.52s-12.12-4.28-12.52-4.65h0l-1.73-.85a7,7,0,0,1-.68,3.17h0s.8,7.06.71,8.14c0,0-.4,9.18-1.4,10.86h0s-2.33,7.46-4.3,9.59h0s-5.36,7.18-9.55,8.52h0a35.05,35.05,0,0,1-17.88,2.49h0s-9.14-.68-10.45-1.6h0s-6.95-2.91-11.39-7.42c0,0-7.39-6.91-8.22-8.37h0s-3.27-4.78-3.21-8.66h0s0-4.31,1.83-6.18h0a31.53,31.53,0,0,0,3.12-4h0l.57-1.23-.14-.21-1.76-.32-2.12.24-2.27.62-2.2,1.2L645.66,301l-4.51,5.63s-6.17,7.2-9.23,8.15h0l-15.34,6.83S606.48,327,604,329.76h0s-13.65,12.69-15.08,16.11h0s-5.87,8.18-7.12,16.23h0s-3.07,16.06-3.17,18.44h0s-.49,6.68,1.33,10.53h0s3.47,9.48,3.65,10.09h0s1.87,6.83,3,12.37a55.35,55.35,0,0,1,.93,6.81h0s2.45,7.11,2.88,11.05h0s1.51,14.84.79,18.12h0s.13,13.31.7,14.93h0s1.83,12.11,2.74,13.46h0s4.08,12.57,5.22,13.73h0s7.53,14,8.82,14.53h0s4,5.1,5,5.57h0s3.93,3,5.11,3.33h0a14.85,14.85,0,0,1,2.86,2.53h0s1.44,2.34.69,3.94h0a3.05,3.05,0,0,1-2.36,2h0l-.25,1.22,1.2.41s5.76-1.88,8.44-1.77h0l5.91-.07,8.3,1.23,7.73,2.26,12.83,4.61,11.69,3.68s14.74,3.56,24.95,4h0s23.84,1.06,36.6-.77h0s13.7-1.64,14.42-1.7h0l5.85-.72s-19.9-6.49-20.46-6.3h0s-15.76-3.53-17-3.48h0s-10.16-1.66-10.77-1.86h0s-2.83-.82-3.8-2.86h0a3.14,3.14,0,0,1,.76-4h0s1.46-1,6.06-1.07h0s7.82-.56,9.61-.24h0l4.31.24s6.62,1.5,8.38,1.93h0l2.93.62s-1-5.21-.63-6.16a53.46,53.46,0,0,1,10.27-21.87,10.91,10.91,0,0,0,2.82.4.58.58,0,0,0,.14,0,.36.36,0,0,1,.21,0Z" transform="translate(-548.69 -175.59)"/><path class="cls-7" d="M848.63,658.68c0,.17,1.13.38,1.3.4a4.61,4.61,0,0,1,.53,0c.47.09.78.63,1.26.65.14,0,.29,0,.44,0s.54.12.54.27a24.37,24.37,0,0,1,4.33,1.34,4.59,4.59,0,0,0,2.28.45l1.64,0a11.86,11.86,0,0,0,1.58-.06,10,10,0,0,0,3.48-1.42l.73-.43a11.22,11.22,0,0,0,2.62-2.48,39.31,39.31,0,0,0,5.44-9.61,38,38,0,0,0,3.06-10.06,22.5,22.5,0,0,0-.35-7.51h0c-1.54-13.92-23.63-18.69-23.63-18.69h0c-7.66-2.79-20.83-.72-20.83-.72h0c-20.66,3.51-66.24,4.79-66.24,4.79l5.38,33.91-1.37.8a38.17,38.17,0,0,0,7.46,2.07c8.44,1.52,22,3,29.21,2.3h0s24.35,0,25.45.8h0s14.7,1.78,16.58,3.31" transform="translate(-548.69 -175.59)"/><path class="cls-7" d="M616.56,609.56c-.71-.21-1.23-.42-1.42.29-1.07,4-4.79,15.18-8.25,19.58h0s-6.12,10.24-5.14,14.9h0s.7,7.11,5.94,11.53h0a9.36,9.36,0,0,0,5.62,2.44h0s2.44,1,5.75-4.15h0a27.12,27.12,0,0,1,11-7.27h0s22.83-7.58,32.13-7.7h0s26-1.64,30.49-.34h0s-8.54-2.89-18.85-7.29c-12-5.12-26.59-12.09-35.19-16-3.27-1.48-6-2.41-6.85-3h0l-6.66-2.13-3.52-.67-3.55-.26Z" transform="translate(-548.69 -175.59)"/><path class="cls-3" d="M772.16,648.37l-.34,1.47-1.27.29a29.09,29.09,0,0,1-7.88-1.41,22.9,22.9,0,0,1-7.79-4c-.1-.08-1.1,0-1.39-.28s.26-.64.19-.69,6.45-24.47,11.1-28.39c.63-.53,2.11-.14,2.24.68Z" transform="translate(-548.69 -175.59)"/></g><g id="Cabello"><path class="cls-8" d="M728.19,235.48a.41.41,0,0,1-.42.29s-2.65,1-3.09-1.1c0,0-1.35-11.49-1.74-11.88h0l-1.37-4.95s-.63-1.07-1-1h0A4,4,0,0,1,719,215s-2-6.69-2.33-6.84h0l-3.22-6.24a.5.5,0,0,0-.53-.24c-.35.06-.09,0-.09,0a41.91,41.91,0,0,1-5.52-.07h0l-7.51-.89s-4.84.14-5.71.64c0,0-3.09,1.3-4.33,2.92h0s-2.12,1.46-3.29.57h0s-5.52-2.41-6.73-2.38h0a5.55,5.55,0,0,0-1.61-.32L677,202s-12.58-.5-13.72.21h0s-5.2,1.15-6.94,3.66h0s-2.26,1.94-2,6.75c0,0,.8,5.88-.29,7.54h0s-.3,1.52-2.79,2.84c0,0-3.71,1.28-3.32,5.11,0,0-.29.42.66,6h0l-.11,2.06s-3.08.32-3.37-.27h0l-2.92-16.85-2.09-13.2s-1.06-7.21.82-12h0s2.26-6.19,6.9-8.52h0a25.32,25.32,0,0,1,11-3.1h0l7.94-.14s-1.54-4.21-4.66-4.85h0s8.52-2,14-1.53h0s8.89.42,14.9,2.59h0l4.78,1.85-2.18-1.42s7.64-.22,13.44,1.72h0s9.13,2.71,11.87,4.89h0s6.94,3.17,3.48,7-.1,0-.1,0a7.68,7.68,0,0,1,3.2,4.86h0c.07.15.1.35.16.51l.1.27a10.14,10.14,0,0,1,.44,1.52c.12.7.32,1.37.49,2.06s.37,1.59.55,2.38l.14.63c0,.16.07.31.1.46q.13.62.24,1.23l.25,1.34s1.47,12.61,1.24,13.33h0l-.21,6.8-.91,7.71" transform="translate(-548.69 -175.59)"/></g><g id="LOGO_SIS" data-name="LOGO SIS"><image class="cls-9" width="398" height="396" transform="matrix(0.12, 0, -0.04, 0.12, 338.8, 278.26)" xlink:href="logo%20sis.png"/><path class="cls-10" d="M920.85,456.74s15.58,9.88-2,31.58c0,0-8.09,11.86-26.21,12.78,0,0-20.6-2.91-11.66-26.06C880.94,475,895.49,446.36,920.85,456.74Z" transform="translate(-548.69 -175.59)"/><path class="cls-11" d="M906.46,488.57s-4.73,3.29-7.53,2.91l.67-1.63-.39-.41.39-.87.73-.6.67-1.57-.45-.51.86-.76.8-2.72v-.31s3.77-2.22,3.51-4.62l-1.08-1.64.45-.89-.36-.83.58-1.73s7.08-.12,7.37-8.26c0,0,3.26,2-1.15,10.18l.9-.64a8.91,8.91,0,0,1-2.56,4.47s-.54,1.12-1.11,1.24c0,0-2.24,3.51-4.92,4.89,0,0-.54.79.32.6l1.37-1-1.21,3.45Z" transform="translate(-548.69 -175.59)"/><path class="cls-12" d="M890.34,488.64l3.54-1.21,1.57-3.71.95,1.22.32-.07s-2.2-2.49-2.07-5.26l-.38-.71.41-.95s-1.34-.74,1.92-7c0,0,.44-1,1.14-1,0,0,2.21-9.19,13.66-6.93,0,0,3.61,6.7-6.09,9.35l-.86,1.7.32.76-.26.81,1,1.82s-.7,3.4-3.41,4.36c0,0-.71,3.67-1.7,3.86l.51.93-.76,1.49-.7.36-.39.89.16.58-.6,1.56S892.64,492.37,890.34,488.64Z" transform="translate(-548.69 -175.59)"/><path class="cls-10" d="M913.84,459.09s14.48,3.25,6.31,21.12c0,0-7.09,15.83-24.38,16.6,0,0-20.94-1.15-11.11-22.34C884.66,474.47,896.22,454.64,913.84,459.09Z" transform="translate(-548.69 -175.59)"/></g><g id="draw_mano" data-name="draw mano"><path class="cls-2" d="M763.34,508.87s.25,0,.72.15a16.13,16.13,0,0,1,2,.66,63.2,63.2,0,0,1,6.89,3.65l4.68,2.65,2.61,1.48,1.36.78a2.21,2.21,0,0,1,1.11,1.16,2.17,2.17,0,0,1,0,1.64,3.26,3.26,0,0,1-1.11,1.28,7.84,7.84,0,0,1-3.14,1.51,10.26,10.26,0,0,1-7.07-1.38c-2.24-1.18-4-2.89-6.07-4.11a9.7,9.7,0,0,0-3.2-1.29,10.53,10.53,0,0,0-3.31-.07c-2.16.26-4.15.86-6.06,1.18a53.15,53.15,0,0,1-5.33.73,57.68,57.68,0,0,1-7.79.19c-1.84-.09-2.86-.19-2.86-.19s1,.1,2.86.17a58.47,58.47,0,0,0,7.78-.22c1.64-.15,3.43-.39,5.33-.75s3.89-.93,6.06-1.2a10.72,10.72,0,0,1,3.34.06,9.91,9.91,0,0,1,3.23,1.31c2,1.22,3.85,2.92,6.07,4.1a10.2,10.2,0,0,0,7,1.37,7.84,7.84,0,0,0,3.1-1.49,3.1,3.1,0,0,0,1.08-1.23,2.11,2.11,0,0,0,0-1.58,2.16,2.16,0,0,0-1.07-1.12l-1.36-.78-2.6-1.48-4.68-2.68a68.49,68.49,0,0,0-6.86-3.68,16.68,16.68,0,0,0-2-.66C763.59,508.91,763.34,508.87,763.34,508.87Z" transform="translate(-548.69 -175.59)"/><path class="cls-2" d="M764.2,508.52l.32-.16a8.57,8.57,0,0,1,.93-.44,12.83,12.83,0,0,1,3.69-.9,14.8,14.8,0,0,1,5.58.56,18.09,18.09,0,0,1,6,3.25,25.83,25.83,0,0,1,4.69,5,11,11,0,0,0,4.07,3.78,4.89,4.89,0,0,0,3.68.2,3.29,3.29,0,0,0,1.15-.76,3.24,3.24,0,0,1-1.14.77,4.88,4.88,0,0,1-3.71-.16,10.9,10.9,0,0,1-4.12-3.77,26,26,0,0,0-4.68-5,18,18,0,0,0-6-3.25,14.91,14.91,0,0,0-5.55-.6,12.69,12.69,0,0,0-3.68.86c-.41.18-.73.32-.94.43Z" transform="translate(-548.69 -175.59)"/><path class="cls-2" d="M780.69,499.62l2.78,2.2,3,2.39c1.13.91,2.39,1.88,3.63,3a16.48,16.48,0,0,1,3.06,3.58,9.49,9.49,0,0,1,1.3,3.61,7,7,0,0,1-.08,2.58,5.54,5.54,0,0,1-.19.67l-.08.24.07-.24a5.28,5.28,0,0,0,.19-.68,7.31,7.31,0,0,0,0-2.57,9.74,9.74,0,0,0-1.33-3.56,16.82,16.82,0,0,0-3.05-3.55c-1.24-1.12-2.49-2.09-3.62-3l-3-2.42Z" transform="translate(-548.69 -175.59)"/><path class="cls-2" d="M791.72,508.39a2.54,2.54,0,0,1,.94.6,10.37,10.37,0,0,1,1.58,2.2,4.75,4.75,0,0,0,1,1.1,2.58,2.58,0,0,0,1.07.5,1.91,1.91,0,0,0,.81,0,1.71,1.71,0,0,0,.28-.1,1.2,1.2,0,0,1-.28.12,1.85,1.85,0,0,1-.82.05,2.55,2.55,0,0,1-1.12-.48,4.57,4.57,0,0,1-1-1.12,13.18,13.18,0,0,0-1.52-2.21A2.58,2.58,0,0,0,791.72,508.39Z" transform="translate(-548.69 -175.59)"/><path class="cls-2" d="M792.52,497.94s1.63,1.71,3.59,3.86a15.76,15.76,0,0,1,2.32,2.92,4.69,4.69,0,0,1,.4,1.06,2.89,2.89,0,0,1,.07.41,3.58,3.58,0,0,0-.09-.41,4.18,4.18,0,0,0-.42-1,17.44,17.44,0,0,0-2.36-2.87C794.07,499.72,792.52,497.94,792.52,497.94Z" transform="translate(-548.69 -175.59)"/><path class="cls-2" d="M800.31,504.28a2.88,2.88,0,0,0,.32-.55A4.17,4.17,0,0,0,801,502a5.73,5.73,0,0,0-.73-2.71,12.46,12.46,0,0,0-2.38-2.9,44.38,44.38,0,0,0-3.4-3,10.88,10.88,0,0,0-4.68-2.21c-3.63-.74-7.73.31-12-.44s-8.11-1.93-11.81-2.12-6.93.84-9.6,1.58a24.28,24.28,0,0,1-6.48,1.18c-.4,0-.74,0-1,0a6.37,6.37,0,0,1-.76-.09l-.61-.1.62.09a4.53,4.53,0,0,0,.75.09,8.28,8.28,0,0,0,1,0,24.16,24.16,0,0,0,6.48-1.22c2.66-.74,5.89-1.89,9.62-1.61s7.61,1.46,11.81,2.1,8.31-.29,12,.46a11,11,0,0,1,4.7,2.24,44.41,44.41,0,0,1,3.4,3,12.73,12.73,0,0,1,2.37,2.92A5.66,5.66,0,0,1,801,502a4.16,4.16,0,0,1-.37,1.75A3,3,0,0,1,800.31,504.28Z" transform="translate(-548.69 -175.59)"/></g><g id="Bordes"><path class="cls-2" d="M724.74,194.62l.61,1.84c.4,1.21.94,3,1.53,5.36a83.53,83.53,0,0,1,2.45,20.28c0,2.16-.09,4.43-.3,6.78-.09,1.18-.22,2.37-.38,3.59-.07.61-.17,1.22-.26,1.84l-.15.93-.07.45c0,.1.22.17.34.26a9,9,0,0,1,3.45,6.84,31.54,31.54,0,0,1-1,8.28q-.81,4.22-1.68,8.62a9.31,9.31,0,0,1-1.51,4.25,3.44,3.44,0,0,1-2,1.16,2.27,2.27,0,0,1-2.14-.72c-.54-.58-.87-1.32-1.45-1.83a1.51,1.51,0,0,0-1-.38,1.46,1.46,0,0,0-1,.51,4.63,4.63,0,0,0-.94,2.13c-.13.77-.21,1.58-.33,2.37a59,59,0,0,1-11,26.57A23.88,23.88,0,0,1,701.3,300a18.66,18.66,0,0,1-8.37,2.46,27.73,27.73,0,0,1-8.29-.8A35.07,35.07,0,0,1,671,295a40.73,40.73,0,0,1-4.91-4.68,55.33,55.33,0,0,1-6.62-9.59c-1.67-3-2.92-5.69-3.91-7.89s-1.72-3.94-2.22-5.11l-.76-1.79s.27.62.76,1.79,1.23,2.9,2.23,5.1,2.26,4.88,3.93,7.88a55.5,55.5,0,0,0,6.63,9.57,39.91,39.91,0,0,0,4.91,4.67,35.12,35.12,0,0,0,13.58,6.6,27.6,27.6,0,0,0,8.27.79,18.58,18.58,0,0,0,8.32-2.45,24,24,0,0,0,6.62-6.22,58.55,58.55,0,0,0,8.76-17,59.16,59.16,0,0,0,2.22-9.5c.11-.79.19-1.58.33-2.37a4.76,4.76,0,0,1,1-2.19,1.6,1.6,0,0,1,1.07-.53,1.55,1.55,0,0,1,1.11.4,19.3,19.3,0,0,1,1.46,1.84,2.17,2.17,0,0,0,2.05.69,3.3,3.3,0,0,0,1.92-1.13,9.23,9.23,0,0,0,1.49-4.2c.57-2.94,1.14-5.81,1.68-8.62a31.46,31.46,0,0,0,1-8.26,9,9,0,0,0-3.41-6.78l-.2-.13-.11-.07s-.09-.05-.06-.1l.07-.48.15-.93c.1-.62.19-1.23.26-1.84.16-1.21.3-2.41.39-3.59.21-2.34.3-4.61.3-6.77a84,84,0,0,0-2.4-20.28c-.59-2.34-1.13-4.14-1.52-5.36Z" transform="translate(-548.69 -175.59)"/><path class="cls-2" d="M722.31,192.51a2.23,2.23,0,0,0,.26-.17,2,2,0,0,0,.66-.84,3.12,3.12,0,0,0,.15-2,4.81,4.81,0,0,0-1.94-2.55,46.53,46.53,0,0,0-9.77-4.95,51,51,0,0,0-7.83-2.21c-1.49-.29-3.08-.54-4.77-.71s-3.53-.25-5.3-.24h.07s-.08,0,0,0l.1.07.3.2,1.26.84.41.28-.46-.18-1.09-.45-.61-.25-.59-.22-1.26-.46c-.9-.29-1.88-.63-3-.92A52.09,52.09,0,0,0,672,175.88c-1.69.08-3.43.28-5.2.54-.89.14-1.79.32-2.69.49l-1.35.31-.25.06-.12,0s.06,0,.09,0,.31.12.55.22a7.37,7.37,0,0,1,3.78,4.26l.07.21c0,.05.11.19,0,.16h-2.67c-1,0-2,0-3,.05A28.93,28.93,0,0,0,649,184.84a16.59,16.59,0,0,0-4.11,2.85,14.91,14.91,0,0,0-2.93,4,21.24,21.24,0,0,0-2,9.39,54.94,54.94,0,0,0,.84,9.32c.51,3,1,6,1.51,8.86,1,5.76,1.94,11.24,2.83,16.37l0,.27s0,.13,0,.11H645a2.86,2.86,0,0,0-.49,0,4.19,4.19,0,0,0-.94.15,4.66,4.66,0,0,0-1.65.9,6,6,0,0,0-1.89,3.08,14.15,14.15,0,0,0-.42,3.51c0,1.16,0,2.29.06,3.39a54.08,54.08,0,0,0,1.92,11.77,22.84,22.84,0,0,0,1.66,4.59c.7,1.3,1.79,2.41,3.07,2.46a3,3,0,0,0,1.67-.43c.48-.26.9-.56,1.31-.79a3.35,3.35,0,0,1,1.23-.47,1.59,1.59,0,0,1,1,.3,2.66,2.66,0,0,1,.9,1.15,2,2,0,0,1,.15.48,2,2,0,0,0-.15-.48,2.62,2.62,0,0,0-.91-1.15,1.54,1.54,0,0,0-1-.29,3.24,3.24,0,0,0-1.22.47c-.42.23-.84.53-1.32.8a3.1,3.1,0,0,1-1.67.43c-1.29-.05-2.39-1.17-3.1-2.46a23.17,23.17,0,0,1-1.66-4.6A53.42,53.42,0,0,1,639.63,247c-.06-1.11-.08-2.24-.07-3.4a14.17,14.17,0,0,1,.42-3.52,6,6,0,0,1,1.91-3.12,4.79,4.79,0,0,1,1.67-.92,3.84,3.84,0,0,1,1-.15,3.39,3.39,0,0,1,.47,0h.1s0,0,0-.07l0-.22c-.89-5.12-1.85-10.6-2.85-16.37-.49-2.88-1-5.84-1.52-8.86a56,56,0,0,1-.84-9.33,21.35,21.35,0,0,1,2-9.44,15.09,15.09,0,0,1,2.94-4,17.22,17.22,0,0,1,4.14-2.87,29.19,29.19,0,0,1,12.19-2.63c1,0,2,0,3,0h2.56c.07,0,0-.05,0-.09l0-.14a7.3,7.3,0,0,0-3.73-4.2c-.19-.08-.48-.21-.77-.3-.05,0-.18-.06-.16-.08l.22-.05.43-.1,1.38-.31c.9-.18,1.8-.36,2.69-.49a50.81,50.81,0,0,1,5.22-.54,52.64,52.64,0,0,1,9.39.34,51.42,51.42,0,0,1,7.54,1.54c1.09.28,2.07.63,3,.92l1.26.46.58.22.47.19.85.36.37.15-.3-.21-.94-.63-.38-.26-.12-.08s.05,0,.06,0,.09,0-.07,0a50.12,50.12,0,0,1,18,3.18,46.17,46.17,0,0,1,9.78,4.95,4.91,4.91,0,0,1,1.94,2.56,3.11,3.11,0,0,1-.16,2,2,2,0,0,1-.66.84A2.23,2.23,0,0,1,722.31,192.51Z" transform="translate(-548.69 -175.59)"/><path class="cls-13" d="M673.22,275" transform="translate(-548.69 -175.59)"/><path class="cls-2" d="M726.93,233.21l-.08.2a4.4,4.4,0,0,1-.29.56,4.69,4.69,0,0,1-1.82,1.6,7,7,0,0,1-3.76.68,25.79,25.79,0,0,1-5-1.17c-3.64-1.15-8.22-1.14-13.22-1.12a23.09,23.09,0,0,0-7.73,1.16c-1.28.46-2.54,1.06-3.91,1.42a9.8,9.8,0,0,1-4.28.11c-1.43-.25-2.8-.68-4.16-1.05s-2.71-.66-4.06-.88a60.25,60.25,0,0,0-7.82-.71c-2.51-.07-4.89-.06-7.12,0s-4.31,0-6.2.23c-3.81.29-6.64,1.67-8.74,2a8.51,8.51,0,0,1-2.43.11,6,6,0,0,1-.63-.1l-.21-.05.21.05a6,6,0,0,0,.63.1,8.31,8.31,0,0,0,2.43-.13c2.09-.33,4.92-1.73,8.73-2,1.89-.2,4-.24,6.21-.26s4.61,0,7.12,0a60.48,60.48,0,0,1,7.84.7,40,40,0,0,1,4.07.88c1.36.37,2.73.8,4.15,1a9.43,9.43,0,0,0,4.23-.11c1.36-.35,2.62-.94,3.91-1.4a23,23,0,0,1,7.76-1.16c5,0,9.59,0,13.24,1.16a25.78,25.78,0,0,0,5,1.19,7,7,0,0,0,3.76-.67,4.48,4.48,0,0,0,1.81-1.58,3.62,3.62,0,0,0,.3-.56Z" transform="translate(-548.69 -175.59)"/><path class="cls-2" d="M727.56,238.38l-.26.13a6,6,0,0,0-.72.4,8.48,8.48,0,0,0-2.25,2.22,22.61,22.61,0,0,0-2.33,4.44,18.69,18.69,0,0,1-3.33,5.74,7.44,7.44,0,0,1-3.3,2,17.4,17.4,0,0,1-4.16.58,55.61,55.61,0,0,1-9.27-.11,15.66,15.66,0,0,1-9.21-4.13A9.89,9.89,0,0,1,690,245c-.23-.9-.31-1.82-.6-2.71a3.26,3.26,0,0,0-.63-1.21,1.88,1.88,0,0,0-1.18-.64,2.69,2.69,0,0,0-2.34,1.2,7.92,7.92,0,0,0-1.07,2.52,9.64,9.64,0,0,1-2.76,4.61A13.21,13.21,0,0,1,677,251.5a19,19,0,0,1-4.91,1,40.33,40.33,0,0,1-4.77.09c-1.55-.07-3-.1-4.5-.26a8.76,8.76,0,0,1-4-1.29,7,7,0,0,1-2.35-3c-1-2.29-1.24-4.55-2.05-6.34a7.64,7.64,0,0,0-1.44-2.3,4.72,4.72,0,0,0-1.91-1.24,3.92,3.92,0,0,0-3.09.08,2.58,2.58,0,0,0-.67.48l-.19.2.19-.21a2.84,2.84,0,0,1,.67-.48,4,4,0,0,1,3.1-.09,4.82,4.82,0,0,1,1.92,1.24,7.86,7.86,0,0,1,1.45,2.3c.82,1.8,1.09,4.07,2.07,6.34a6.85,6.85,0,0,0,2.34,3,8.59,8.59,0,0,0,3.95,1.28c1.44.15,2.94.18,4.49.24a38.1,38.1,0,0,0,4.76-.09,19.07,19.07,0,0,0,4.88-1,13.25,13.25,0,0,0,4.43-2.69,9.46,9.46,0,0,0,2.73-4.57,8.22,8.22,0,0,1,1.08-2.56,2.82,2.82,0,0,1,2.44-1.24,2,2,0,0,1,1.25.68,3.4,3.4,0,0,1,.65,1.25c.29.9.37,1.83.6,2.71a9.84,9.84,0,0,0,2.71,4.59,15.57,15.57,0,0,0,9.15,4.11,54.49,54.49,0,0,0,9.26.13,17.32,17.32,0,0,0,4.15-.57,7.44,7.44,0,0,0,3.27-2,18.94,18.94,0,0,0,3.34-5.72,22,22,0,0,1,2.35-4.44,8.65,8.65,0,0,1,2.26-2.22,7.83,7.83,0,0,1,.72-.4Z" transform="translate(-548.69 -175.59)"/><path class="cls-2" d="M656,237.39s-.12.23-.3.69a7.67,7.67,0,0,0-.47,2.08,9.21,9.21,0,0,0,.34,3.36,9.58,9.58,0,0,0,2.2,3.86,12.39,12.39,0,0,0,4.47,3,16,16,0,0,0,6.1,1.1,25.25,25.25,0,0,0,6.81-1,12.27,12.27,0,0,0,6.21-3.81,7.74,7.74,0,0,0,1.64-3.32,6.37,6.37,0,0,0-.27-3.57,5.34,5.34,0,0,0-2.16-2.67,8,8,0,0,0-3.19-1c-4.38-.4-8.35-.67-11.67-.94-1.66-.12-3.16-.3-4.49-.26a6.9,6.9,0,0,0-3.26.79,4.45,4.45,0,0,0-1.59,1.41,3.06,3.06,0,0,0-.35.66,3.06,3.06,0,0,1,.35-.66,4.42,4.42,0,0,1,1.58-1.43,7,7,0,0,1,3.27-.81c1.33,0,2.83.13,4.49.24,3.33.27,7.29.52,11.68.91a8.1,8.1,0,0,1,3.23,1,5.35,5.35,0,0,1,2.2,2.72,6.28,6.28,0,0,1,.28,3.62,7.85,7.85,0,0,1-1.66,3.37,12.3,12.3,0,0,1-6.26,3.83,25.46,25.46,0,0,1-6.84,1,16.2,16.2,0,0,1-6.13-1.12,12.49,12.49,0,0,1-4.48-3.06,9.75,9.75,0,0,1-2.2-3.89,9.22,9.22,0,0,1-.32-3.37,7.55,7.55,0,0,1,.49-2.08C655.92,237.62,656,237.39,656,237.39Z" transform="translate(-548.69 -175.59)"/><path class="cls-2" d="M693.73,238.43a6.5,6.5,0,0,0-.35.67,7.35,7.35,0,0,0-.62,2.07,9,9,0,0,0,.2,3.39,9.25,9.25,0,0,0,2.14,3.95c2.23,2.53,6.21,4.23,10.66,4.17a30,30,0,0,0,6.9-.88,13.24,13.24,0,0,0,3.43-1.3,6.88,6.88,0,0,0,2.62-2.65,10.32,10.32,0,0,0,1.11-3.6,16.81,16.81,0,0,0,.16-3.67,4.22,4.22,0,0,0-1.55-3.05,8.11,8.11,0,0,0-3.1-1.33,36.91,36.91,0,0,0-11.71-1.12,22.62,22.62,0,0,0-7.67,2,20.17,20.17,0,0,0-1.91,1l-.63.41.63-.42a20.39,20.39,0,0,1,1.9-1,22.53,22.53,0,0,1,7.67-2,36.68,36.68,0,0,1,11.74,1.08,8.28,8.28,0,0,1,3.14,1.34,4.34,4.34,0,0,1,1.59,3.12,17.07,17.07,0,0,1-.15,3.7,10.64,10.64,0,0,1-1.13,3.63,6.81,6.81,0,0,1-2.66,2.69,13.14,13.14,0,0,1-3.45,1.3,29.71,29.71,0,0,1-6.93.88,16.47,16.47,0,0,1-6.19-1.13,12.07,12.07,0,0,1-4.51-3.1,9.18,9.18,0,0,1-2.13-4,8.66,8.66,0,0,1-.18-3.41,7.46,7.46,0,0,1,.62-2.07C693.59,238.65,693.73,238.43,693.73,238.43Z" transform="translate(-548.69 -175.59)"/><path class="cls-2" d="M724.75,234.83l-.67-5.05c-.21-1.62-.48-3.61-.93-5.89-.22-1.14-.5-2.36-.85-3.63-.18-.64-.37-1.29-.59-1.95a2.37,2.37,0,0,0-.45-.93,3.46,3.46,0,0,0-.87-.63,3.83,3.83,0,0,1-.9-.67,2.92,2.92,0,0,1-.49-1c-.26-.73-.49-1.47-.73-2.24a31.07,31.07,0,0,0-1.69-4.68l-2.45-4.74-.64-1.23-.16-.31c-.07-.1-.07-.24-.18-.18l-.69.08a18.39,18.39,0,0,1-2.88.07c-3.87-.15-7.86-1.35-12.08-1a11.8,11.8,0,0,0-6,1.94,30.72,30.72,0,0,1-2.56,2.06,4,4,0,0,1-3.27-.2c-1-.44-2-1-3.06-1.31a19.46,19.46,0,0,0-3.17-.83,39.72,39.72,0,0,0-6.39-.57c-4.19,0-8.35-.29-12,1a10.93,10.93,0,0,0-4.66,3.08,7.71,7.71,0,0,0-1.9,4.85c-.09,1.72.17,3.37.24,5a10.3,10.3,0,0,1-.64,4.53,5.31,5.31,0,0,1-1.19,1.77,5.72,5.72,0,0,1-1.73,1.07,5.73,5.73,0,0,0-1.66.94,4.52,4.52,0,0,0-1,1.45,10,10,0,0,0-.22,5.87,19.26,19.26,0,0,1,.44,3.74,6.3,6.3,0,0,1-.12,1.31,6.3,6.3,0,0,0,.12-1.31,18.83,18.83,0,0,0-.46-3.74,10,10,0,0,1,.21-5.88c.72-2.56,4.64-2.16,5.6-5.24a10.19,10.19,0,0,0,.63-4.51,46.89,46.89,0,0,1-.25-5,7.79,7.79,0,0,1,1.91-4.9,11.07,11.07,0,0,1,4.69-3.1c3.71-1.3,7.87-1,12.06-1a41.12,41.12,0,0,1,6.41.56,21.12,21.12,0,0,1,3.19.84c1,.35,2,.88,3.06,1.31a3.86,3.86,0,0,0,3.18.21c1-.5,1.62-1.46,2.55-2.06a11.92,11.92,0,0,1,6.07-1.95c4.25-.3,8.24.9,12.1,1.05a18.17,18.17,0,0,0,2.86-.06l.7-.09c.18-.09.19.16.26.23l.16.31.63,1.23,2.45,4.75a31.51,31.51,0,0,1,1.68,4.69c.24.77.47,1.52.72,2.24a3,3,0,0,0,.49,1,3.52,3.52,0,0,0,.88.65,4,4,0,0,1,.88.64,2.35,2.35,0,0,1,.45,1c.23.66.42,1.31.59,1.95.35,1.27.62,2.49.84,3.63.44,2.29.71,4.28.92,5.9C724.52,233,724.75,234.83,724.75,234.83Z" transform="translate(-548.69 -175.59)"/><path class="cls-13" d="M666.3,307.94" transform="translate(-548.69 -175.59)"/><path class="cls-13" d="M657.87,297.09" transform="translate(-548.69 -175.59)"/><path class="cls-13" d="M656.77,275.37" transform="translate(-548.69 -175.59)"/><path class="cls-2" d="M717.74,292.74s.07-4.88.22-10.91.32-10.91.32-10.91-.07,4.88-.22,10.91S717.74,292.74,717.74,292.74Z" transform="translate(-548.69 -175.59)"/><path class="cls-2" d="M654.13,269.63l.08.37c0,.25.12.62.17,1.11a4.43,4.43,0,0,0,.3,1.77c.19.69.4,1.5.61,2.4a74,74,0,0,1,2.06,15.65,29.22,29.22,0,0,1-.23,5.23,7.49,7.49,0,0,1-.93,2.62,15.87,15.87,0,0,1-1.75,2.3,14.16,14.16,0,0,0-1.8,2.38,9.42,9.42,0,0,0-1.06,2.87,12.83,12.83,0,0,0,.51,6.33,18.2,18.2,0,0,0,3.37,5.82,48.75,48.75,0,0,0,4.94,5c3.55,3.2,7.21,6.7,11.85,8.85a24.37,24.37,0,0,0,7.23,2c2.46.31,4.9.41,7.3.5,4.78.15,9.49-.11,13.64-1.66a24,24,0,0,0,10-7.27,29.75,29.75,0,0,0,5.25-9.49,42,42,0,0,0,1.92-15.59c-.09-1.86-.26-3.3-.37-4.28l-.2-1.48s.07.51.21,1.48.28,2.42.38,4.28a42,42,0,0,1-1.89,15.61,29.88,29.88,0,0,1-5.24,9.51,24.17,24.17,0,0,1-10,7.32c-4.17,1.56-8.89,1.82-13.68,1.67-2.39-.09-4.84-.19-7.3-.5a24.1,24.1,0,0,1-7.27-2c-4.66-2.17-8.32-5.67-11.86-8.87a48.15,48.15,0,0,1-5-5,18.34,18.34,0,0,1-3.37-5.85,12.8,12.8,0,0,1-.51-6.38,9.3,9.3,0,0,1,1.07-2.89,14.86,14.86,0,0,1,1.81-2.39,16.27,16.27,0,0,0,1.75-2.28,7.59,7.59,0,0,0,.93-2.6,30.06,30.06,0,0,0,.24-5.22,73.59,73.59,0,0,0-2-15.64c-.21-.91-.42-1.71-.6-2.41a4.4,4.4,0,0,1-.29-1.77c-.06-.49-.12-.86-.17-1.11Z" transform="translate(-548.69 -175.59)"/><path class="cls-2" d="M805.25,382.69s0-2-.06-5.67-.21-8.94-.77-15.45A144.63,144.63,0,0,0,800.71,339a52,52,0,0,0-4.82-12.62,34.31,34.31,0,0,0-9.59-10.77,52.89,52.89,0,0,0-12.76-6.87,100.82,100.82,0,0,0-13-3.87c-4.2-1-8.22-1.84-12-2.69s-7.22-1.75-10.36-2.65c-6.27-1.82-11.25-3.63-14.66-4.94s-5.26-2.14-5.26-2.14,1.86.81,5.27,2.12,8.39,3.1,14.67,4.9c3.14.9,6.61,1.79,10.35,2.64s7.77,1.67,12,2.67a103,103,0,0,1,13,3.86,52.93,52.93,0,0,1,12.78,6.89,34.29,34.29,0,0,1,9.62,10.8,51.89,51.89,0,0,1,4.82,12.64,143.54,143.54,0,0,1,3.67,22.64c.55,6.52.67,11.81.74,15.46Z" transform="translate(-548.69 -175.59)"/><path class="cls-2" d="M805.27,382.47l0,.64c0,.42-.09,1.05-.09,1.85a32.62,32.62,0,0,0,.64,6.76,58.06,58.06,0,0,0,2.86,9.67c1.32,3.56,3.09,7.35,4.65,11.46,1.81,4,2.68,8.13,3.82,11.75a69,69,0,0,0,3.63,9.41c1.23,2.6,2.39,4.62,3.21,6s1.32,2.12,1.32,2.12-.49-.74-1.33-2.11A67.22,67.22,0,0,1,817,424.63c-1.15-3.62-2-7.73-3.84-11.75-1.56-4.09-3.32-7.89-4.64-11.46a56.83,56.83,0,0,1-2.82-9.69,32.16,32.16,0,0,1-.6-6.77c0-.8.06-1.43.09-1.85S805.27,382.47,805.27,382.47Z" transform="translate(-548.69 -175.59)"/><path class="cls-2" d="M772,403.81s-.25,1.38-.64,3.88-.91,6.14-1.31,10.66a109.18,109.18,0,0,0-.31,15.89,75.49,75.49,0,0,0,3.49,19.12,57.87,57.87,0,0,0,8.9,17.22,50,50,0,0,0,5.72,6.27,71.55,71.55,0,0,0,5.76,4.66l11.86,8.64-11.89-8.59c-1.82-1.35-3.8-2.86-5.78-4.65a51,51,0,0,1-5.74-6.28,57.91,57.91,0,0,1-8.93-17.24,75.16,75.16,0,0,1-3.48-19.14,110.48,110.48,0,0,1,.34-15.91c.43-4.51,1-8.14,1.36-10.65S772,403.81,772,403.81Z" transform="translate(-548.69 -175.59)"/><path class="cls-2" d="M751.1,491a1.88,1.88,0,0,0-1.13-.67,2.82,2.82,0,0,0-1.54.13,4.4,4.4,0,0,0-1.64,1.24c-.5.58-.95,1.3-1.47,2l-1.62,2.41a62.45,62.45,0,0,0-3.4,5.69,26.07,26.07,0,0,0-3.2,11.5,17.36,17.36,0,0,0,.32,3.63,8.77,8.77,0,0,0,.22,1l.09.34-.09-.34a8.23,8.23,0,0,1-.24-1,17.12,17.12,0,0,1-.35-3.64,21.86,21.86,0,0,1,.73-5.37,30.26,30.26,0,0,1,2.43-6.18,60.24,60.24,0,0,1,3.42-5.69c.57-.85,1.12-1.65,1.63-2.4a24.38,24.38,0,0,1,1.49-2,4.21,4.21,0,0,1,1.67-1.24,2.74,2.74,0,0,1,1.55-.11A1.87,1.87,0,0,1,751.1,491Z" transform="translate(-548.69 -175.59)"/><path class="cls-2" d="M587.33,419.89s-.05-.57-.13-1.65-.28-2.68-.62-4.71A92.35,92.35,0,0,0,582,396.69c-1.3-3.44-3-7.18-3.45-11.54s.54-9,1.3-13.77a89.36,89.36,0,0,1,3.51-14.89,42.27,42.27,0,0,1,3.37-7.36,51.5,51.5,0,0,1,4.78-6.83c1.78-2.19,3.68-4.23,5.59-6.2s3.88-3.83,5.88-5.57A57.28,57.28,0,0,1,615.65,322c4.4-2.13,8.79-3.64,12.73-5.47a33,33,0,0,0,10-6.65c2.54-2.68,4.34-5.53,6.3-7.71a16.5,16.5,0,0,1,5.94-4.52,9.6,9.6,0,0,1,4.63-.82,7.4,7.4,0,0,1,1.22.22l.4.11-.41-.11a6.33,6.33,0,0,0-1.21-.21,9.39,9.39,0,0,0-4.63.83,16.26,16.26,0,0,0-5.91,4.53c-2,2.18-3.75,5-6.3,7.71a32.6,32.6,0,0,1-10,6.68c-3.94,1.84-8.33,3.36-12.72,5.49a57.41,57.41,0,0,0-12.63,8.55c-2,1.75-4,3.62-5.87,5.58s-3.81,4-5.59,6.18a53,53,0,0,0-4.77,6.82,42.54,42.54,0,0,0-3.36,7.35A90,90,0,0,0,580,371.4c-.77,4.8-1.72,9.4-1.32,13.74s2.13,8.09,3.42,11.53a91.65,91.65,0,0,1,4.55,16.85c.33,2,.51,3.64.6,4.72S587.33,419.89,587.33,419.89Z" transform="translate(-548.69 -175.59)"/><path class="cls-2" d="M587.33,419.9l.43,1.1.52,1.33c.17.53.37,1.15.59,1.85a50.5,50.5,0,0,1,1.22,5.18,68.07,68.07,0,0,1,.83,7c.39,5.23.24,11.46.37,18.38a87.87,87.87,0,0,0,11.8,42.9,92.49,92.49,0,0,0,5.39,8.2,33.55,33.55,0,0,0,5.76,6.28c2,1.67,4.29,2.52,5.91,3.84a5.61,5.61,0,0,1,2.46,4.51,3.47,3.47,0,0,1-1.68,2.77,3.05,3.05,0,0,1-.83.29l-.29,0,.29,0a2.66,2.66,0,0,0,.83-.28,3.48,3.48,0,0,0,1.67-2.77,5.65,5.65,0,0,0-2.47-4.49c-1.62-1.3-3.89-2.15-5.92-3.82a33.32,33.32,0,0,1-5.79-6.28,90.36,90.36,0,0,1-5.41-8.2,87.16,87.16,0,0,1-8.68-20.7,88.34,88.34,0,0,1-3.13-22.24c-.12-6.92,0-13.15-.34-18.37a68.3,68.3,0,0,0-.8-7,48.47,48.47,0,0,0-1.21-5.19c-.22-.69-.41-1.31-.58-1.85l-.51-1.33Z" transform="translate(-548.69 -175.59)"/><path class="cls-2" d="M627,391.75l1.23,3.18c.8,2,2,5,3.61,8.54s3.62,7.78,6.06,12.34,5.42,9.45,7.55,15.05,2.87,11.49,1.52,16.54c-.32,1.25-.72,2.46-.94,3.66a6.93,6.93,0,0,0,.09,3.51,7.87,7.87,0,0,0,1.75,2.79,29.82,29.82,0,0,1,2,2.34,13.25,13.25,0,0,1,2.12,4.81,13.86,13.86,0,0,1,.27,4,14.59,14.59,0,0,1-.44,2.48l-.27.84.26-.84a13.65,13.65,0,0,0,.44-2.48,13.89,13.89,0,0,0-.29-4,13.07,13.07,0,0,0-2.14-4.79,27.44,27.44,0,0,0-2-2.33,8.05,8.05,0,0,1-1.77-2.81A7.09,7.09,0,0,1,646,451c.22-1.21.61-2.41.94-3.66,1.33-5,.59-10.93-1.54-16.48s-5.13-10.47-7.53-15-4.44-8.78-6-12.36-2.78-6.52-3.58-8.56Z" transform="translate(-548.69 -175.59)"/><path class="cls-2" d="M652.58,471.16l.93.38c.61.26,1.52.62,2.69,1.07a103.32,103.32,0,0,0,10.12,3.29,105.93,105.93,0,0,0,15.48,3,157.56,157.56,0,0,0,19.3.81,152.29,152.29,0,0,1,19.32.79,65.48,65.48,0,0,1,15.3,3.8c4.21,1.58,7.5,3.13,9.77,4.21l3.5,1.73-3.51-1.71c-2.27-1.08-5.57-2.62-9.78-4.18a65.62,65.62,0,0,0-15.29-3.76,155.93,155.93,0,0,0-19.31-.78,155.76,155.76,0,0,1-19.31-.82,104.66,104.66,0,0,1-15.49-3c-4.34-1.18-7.76-2.43-10.11-3.32-1.17-.46-2.07-.83-2.68-1.09Z" transform="translate(-548.69 -175.59)"/><path class="cls-2" d="M735.82,518.6l-4.58-1.13a73.21,73.21,0,0,0-12.68-2,35.7,35.7,0,0,0-8.83.54,25.47,25.47,0,0,0-9.4,3.72,48.25,48.25,0,0,0-4.28,3.45,10.27,10.27,0,0,1-2.43,1.5,9.41,9.41,0,0,1-2.83.65c-1.95.18-4,0-5.92.47s-3.57,1.91-5.58,2.5a4.39,4.39,0,0,1-3-.2,11.24,11.24,0,0,1-2.54-1.69,17.22,17.22,0,0,0-2.41-1.78,11.65,11.65,0,0,0-2.71-1.12c-3.79-1-7.62-.6-11.19-.66a126.93,126.93,0,0,1-19-1.49,128.63,128.63,0,0,1-12.6-2.59c-1.46-.39-2.6-.7-3.37-.93l-1.17-.34,1.17.34c.77.22,1.91.53,3.38.91a128.29,128.29,0,0,0,31.59,4c3.57.06,7.4-.37,11.22.65a12.28,12.28,0,0,1,2.74,1.13,18.14,18.14,0,0,1,2.42,1.78,11,11,0,0,0,2.51,1.69,4.25,4.25,0,0,0,3,.19c2-.58,3.57-2,5.58-2.51s4-.28,5.94-.46a9.44,9.44,0,0,0,2.8-.64,10.62,10.62,0,0,0,2.41-1.48,50.75,50.75,0,0,1,4.29-3.46,25.58,25.58,0,0,1,9.44-3.72,36.29,36.29,0,0,1,8.85-.52,73.06,73.06,0,0,1,12.67,2.09Z" transform="translate(-548.69 -175.59)"/><path class="cls-2" d="M758.54,535.76l-5.46.77c-3.52.47-8.61,1.17-14.94,1.78s-13.87,1.19-22.27,1.29c-4.2.07-8.61-.06-13.17-.3s-9.28-.73-14.07-1.52a129.16,129.16,0,0,1-13.84-2.9c-2.19-.66-4.36-1.24-6.44-1.94s-4.12-1.42-6.09-2.15c-7.85-2.94-15-5.56-21.26-6.65a42.18,42.18,0,0,0-15-.29,27.9,27.9,0,0,0-4,1l-1.35.46,1.34-.47a31.53,31.53,0,0,1,4-1,42.16,42.16,0,0,1,15,.26c6.28,1.08,13.43,3.68,21.29,6.62,2,.72,4,1.45,6.08,2.14s4.25,1.27,6.44,1.94a133.51,133.51,0,0,0,13.83,2.89c4.78.79,9.5,1.19,14.06,1.52s9,.37,13.16.31c8.4-.09,16-.65,22.27-1.25s11.42-1.29,14.94-1.74Z" transform="translate(-548.69 -175.59)"/><path class="cls-2" d="M614.56,609.06s-.63-.11-1.81-.39a30.84,30.84,0,0,1-5-1.79c-2.11-.93-4.59-2.3-7.47-3.87A43.06,43.06,0,0,0,590,598.72c-2-.47-4.17-.7-6.39-1.12a24.22,24.22,0,0,1-6.64-2.24,66.51,66.51,0,0,1-6.49-3.82c-2.17-1.41-4.42-2.84-6.57-4.53a38.13,38.13,0,0,1-9.78-48.67,36.68,36.68,0,0,1,11.36-12.66,20.7,20.7,0,0,1,7.29-3.15,31,31,0,0,1,7.51-.48c4.85.26,9.36.63,13.48.9l26.68,1.87L593.79,523c-4.12-.26-8.64-.63-13.49-.88a31.23,31.23,0,0,0-7.48.48,20.77,20.77,0,0,0-7.26,3.16,36.57,36.57,0,0,0-11.32,12.63,38.94,38.94,0,0,0-4.84,17.55,38.65,38.65,0,0,0,14.58,31c2.15,1.69,4.39,3.12,6.57,4.53A67.22,67.22,0,0,0,577,595.3a24.84,24.84,0,0,0,6.63,2.24c2.21.42,4.37.66,6.38,1.13A42.09,42.09,0,0,1,600.28,603c2.88,1.57,5.36,2.94,7.47,3.88a32.06,32.06,0,0,0,5,1.8C613.93,609,614.56,609.06,614.56,609.06Z" transform="translate(-548.69 -175.59)"/><path class="cls-2" d="M684.82,638.46l-1.36-.05c-.89,0-2.2-.09-3.9-.1a136.72,136.72,0,0,0-14.31.59c-3,.28-6.31.68-9.82,1.28s-7.24,1.33-11.11,2.32-7.91,2.18-12,3.63a63.59,63.59,0,0,0-6.17,2.43,18.66,18.66,0,0,0-5.59,3.84c-1.64,1.6-2.43,3.94-4.37,5.22a4.89,4.89,0,0,1-3.24.71,9.2,9.2,0,0,1-3.14-1,15.87,15.87,0,0,1-7.54-9.67,14.76,14.76,0,0,1-.45-5.81,20.06,20.06,0,0,1,1.43-5.32,87.68,87.68,0,0,1,4.58-8.77,90.16,90.16,0,0,0,5.68-13.14c1.11-3.2,1.73-5,1.73-5l-1.71,5a89.71,89.71,0,0,1-5.66,13.16,90.25,90.25,0,0,0-4.55,8.78,20,20,0,0,0-1.42,5.3,14.81,14.81,0,0,0,.45,5.78,15.82,15.82,0,0,0,7.51,9.6,8.82,8.82,0,0,0,3.1,1,4.78,4.78,0,0,0,3.17-.68c1.9-1.26,2.69-3.59,4.35-5.22a18.68,18.68,0,0,1,5.63-3.85,63.86,63.86,0,0,1,6.18-2.44c4.11-1.44,8.14-2.64,12-3.62s7.61-1.73,11.12-2.3,6.81-1,9.82-1.26a134.91,134.91,0,0,1,14.32-.55c1.7,0,3,.07,3.9.11Z" transform="translate(-548.69 -175.59)"/><path class="cls-2" d="M615.2,609.69l1.43-.1c.47,0,1,0,1.74,0s1.48,0,2.36.16A49.14,49.14,0,0,1,635.18,614c5.83,2.58,12.71,5.81,20.39,9.32s16,7.52,25.08,11.15a121.53,121.53,0,0,0,26.29,7.69,80.45,80.45,0,0,0,11.92,1c3.75.05,7.25,0,10.44,0,6.38,0,11.56.68,15,1.78l1.21.38,1,.4a13.72,13.72,0,0,1,1.59.68l1.3.62-1.3-.62a12.5,12.5,0,0,0-1.6-.67l-1-.4-1.21-.37c-3.41-1.1-8.58-1.74-15-1.74-3.19,0-6.68.08-10.44,0a80.58,80.58,0,0,1-11.93-1,120.78,120.78,0,0,1-26.32-7.67c-9-3.64-17.41-7.66-25.08-11.17s-14.54-6.76-20.37-9.35a49.58,49.58,0,0,0-14.43-4.31c-.89-.11-1.68-.12-2.36-.16s-1.27,0-1.74,0Z" transform="translate(-548.69 -175.59)"/><path class="cls-2" d="M753.46,644.4s.3-1.28.91-3.58,1.57-5.62,3-9.65A140.66,140.66,0,0,1,763,617.31a4.56,4.56,0,0,1,1.3-1.7,2.26,2.26,0,0,1,2.12-.32,1.49,1.49,0,0,1,.8.78,3.85,3.85,0,0,1,.27,1.1c.12.74.23,1.49.35,2.25.46,3,.94,6.17,1.43,9.38,1,6.43,1.9,12.55,2.75,18.12a13.37,13.37,0,0,1,.23,2.08,1.18,1.18,0,0,1-.44.92,1.65,1.65,0,0,1-1,.26,27.3,27.3,0,0,1-10.53-2.36,29.71,29.71,0,0,1-2.71-1.39c-.83-.48-1.57-1-2.32-1.4a4.21,4.21,0,0,0-2.25-.55,2.45,2.45,0,0,0-1.75.8,8.61,8.61,0,0,0-.73,1.4,1.2,1.2,0,0,1-.88.68.77.77,0,0,1-.67-.15.94.94,0,0,1-.14-.2.94.94,0,0,0,.14.2.8.8,0,0,0,.67.15,1.24,1.24,0,0,0,.88-.69,8.51,8.51,0,0,1,.72-1.4,2.47,2.47,0,0,1,1.76-.82,4.28,4.28,0,0,1,2.27.55c.75.39,1.49.92,2.32,1.39a28.52,28.52,0,0,0,2.71,1.38,27.61,27.61,0,0,0,6.65,2,28.25,28.25,0,0,0,3.86.35,1.59,1.59,0,0,0,.93-.25,1.11,1.11,0,0,0,.41-.86,13.57,13.57,0,0,0-.24-2.06c-.85-5.56-1.79-11.69-2.77-18.11q-.74-4.83-1.42-9.38c-.12-.76-.23-1.51-.35-2.25a3.8,3.8,0,0,0-.26-1.08,1.38,1.38,0,0,0-.75-.73,2.2,2.2,0,0,0-2,.31,4.5,4.5,0,0,0-1.27,1.66,140.39,140.39,0,0,0-5.67,13.84c-1.4,4-2.36,7.33-3,9.63S753.46,644.4,753.46,644.4Z" transform="translate(-548.69 -175.59)"/><path class="cls-2" d="M765.7,615.48h2.54c1.67,0,4.12,0,7.28,0,6.33-.1,15.48-.36,26.75-1.22,5.64-.44,11.8-1,18.4-1.81q5-.58,10.22-1.34A98.77,98.77,0,0,1,841.75,610a38.33,38.33,0,0,1,11.38,1.32,67.47,67.47,0,0,1,11.19,4.24c3.65,1.73,7.38,3.83,10,7.19a18.8,18.8,0,0,1,3.58,12A35,35,0,0,1,875,647.12c-1.65,3.85-3.29,7.73-6,10.83a11.67,11.67,0,0,1-4.9,3.47,11.2,11.2,0,0,1-5.88.24,39.7,39.7,0,0,1-5.55-1.72c-.89-.35-1.79-.65-2.7-.92l-2.69-.84A92.6,92.6,0,0,0,826.32,655c-6.64-.34-12.84-.28-18.49-.32-11.3,0-20.47-.59-26.69-1.77L777,652.1c-1.2-.24-2.17-.58-3-.79l-2.44-.68,2.44.68c.81.2,1.79.54,3,.78l4.11.85c6.23,1.17,15.39,1.72,26.69,1.72,5.65,0,11.85,0,18.49.31a91.7,91.7,0,0,1,21,3.13l2.69.84c.91.27,1.81.57,2.71.91a36.57,36.57,0,0,0,5.53,1.71,11,11,0,0,0,5.83-.24,11.42,11.42,0,0,0,4.85-3.44c2.67-3.08,4.32-7,6-10.8a35,35,0,0,0,2.95-12.34,18.71,18.71,0,0,0-3.57-12c-2.59-3.33-6.31-5.43-10-7.16a66.94,66.94,0,0,0-11.17-4.24,38.1,38.1,0,0,0-11.35-1.32,98.83,98.83,0,0,0-10.85,1.11q-5.26.74-10.22,1.33c-6.6.77-12.77,1.35-18.41,1.78-11.27.85-20.42,1.1-26.75,1.18-3.16,0-5.61,0-7.28,0Z" transform="translate(-548.69 -175.59)"/><path class="cls-2" d="M626,545.38l5.74,2.11c3.69,1.37,9,3.37,15.59,5.92,13.12,5.12,31.16,12.43,50.72,21.34a138.53,138.53,0,0,1,13.88,7.31,117.55,117.55,0,0,1,11.87,8.51c3.65,2.89,7.16,5.58,10.61,7.86s6.77,4.26,9.84,6c6.16,3.42,11.29,5.9,14.83,7.64l5.5,2.66-5.51-2.65c-3.54-1.72-8.68-4.19-14.84-7.6-3.08-1.72-6.4-3.68-9.86-6s-7-5-10.63-7.85a115.9,115.9,0,0,0-11.87-8.49,137.05,137.05,0,0,0-13.86-7.3c-19.56-8.91-37.59-16.25-50.7-21.39-6.55-2.57-11.88-4.58-15.57-6Z" transform="translate(-548.69 -175.59)"/><path class="cls-2" d="M813.58,613.26l4.56-.72c1.47-.22,3.28-.47,5.38-.68s4.51-.35,7.15-.67a38.21,38.21,0,0,0,4.11-.72,10.91,10.91,0,0,0,4.12-1.76c.3-.24.58-.52.9-.76a2.42,2.42,0,0,1,1.13-.41c.8-.14,1.6-.3,2.41-.49,1.63-.36,3.29-.79,5-1.31a110.1,110.1,0,0,0,20.88-9.26,19.26,19.26,0,0,0,4.68-3.7,18.35,18.35,0,0,0,3.07-4.92,49.87,49.87,0,0,0,2.8-10.64c.64-3.46,1.21-6.76,1.48-9.87a38.91,38.91,0,0,0-.12-8.68,34.85,34.85,0,0,0-3.89-11.91,33.7,33.7,0,0,0-1.78-2.92l-.69-1,.7,1c.43.66,1.08,1.62,1.79,2.93a34.89,34.89,0,0,1,3.93,11.9,39.55,39.55,0,0,1,.14,8.69c-.27,3.13-.84,6.43-1.47,9.89A49,49,0,0,1,877,587.9a18.08,18.08,0,0,1-3.09,5,19.2,19.2,0,0,1-4.7,3.72,109.62,109.62,0,0,1-20.9,9.26c-1.69.52-3.35.94-5,1.3s-3.39.29-4.42,1.64a10.79,10.79,0,0,1-4.15,1.76,38.65,38.65,0,0,1-4.11.72c-2.65.31-5,.43-7.16.64s-3.9.45-5.38.67Z" transform="translate(-548.69 -175.59)"/><path class="cls-2" d="M806.53,551.15l-4,.42c-1.3.13-2.9.3-4.74.55s-4,.48-6.26.86-4.85.73-7.56,1.23-5.59,1-8.63,1.65c-6.06,1.28-12.68,2.87-19.55,4.82s-13.33,4.12-19.15,6.23c-2.9,1.09-5.66,2.1-8.2,3.15s-4.92,2-7.07,3-4.07,1.81-5.77,2.58-3.14,1.45-4.31,2l-3.66,1.78,3.65-1.79c1.17-.59,2.61-1.29,4.31-2.05s3.6-1.69,5.76-2.6,4.5-2,7.06-3,5.3-2.07,8.2-3.17c5.82-2.11,12.28-4.27,19.15-6.24s13.5-3.53,19.56-4.81c3-.6,5.92-1.19,8.64-1.64s5.25-.87,7.56-1.2,4.42-.6,6.27-.84,3.43-.41,4.74-.53Z" transform="translate(-548.69 -175.59)"/><path class="cls-2" d="M788.18,534.35l-.12,1a12.59,12.59,0,0,1-.61,2.71,5.76,5.76,0,0,1-1,1.75,4.22,4.22,0,0,1-2,1.28c-1.68.5-3.66.12-5.8-.09a98.27,98.27,0,0,1-14.84-3.13c-5.5-1.54-11.45-3.57-17.74-5.55-12.55-4.13-24.42-5.86-32.93-7.24a14.59,14.59,0,0,1-5.59-1.55,4.41,4.41,0,0,1-2.29-3.56,3.17,3.17,0,0,1,1.13-2.45,2.4,2.4,0,0,1,.86-.43,2.28,2.28,0,0,0-.85.44,3.13,3.13,0,0,0-1.12,2.44,4.36,4.36,0,0,0,2.29,3.53,14.72,14.72,0,0,0,5.57,1.53c8.52,1.35,20.41,3.06,33,7.19,6.29,2,12.24,4,17.74,5.57a99.48,99.48,0,0,0,14.82,3.16c2.13.22,4.11.6,5.78.11a4.18,4.18,0,0,0,2-1.27,5.68,5.68,0,0,0,1-1.73,12.88,12.88,0,0,0,.63-2.71C788.14,534.68,788.18,534.35,788.18,534.35Z" transform="translate(-548.69 -175.59)"/><path class="cls-2" d="M726.7,516.56s-1.11-.13-2.92-.25-4.31-.21-7.07-.14-5.25.32-7.05.55-2.9.42-2.9.42,1.1-.22,2.89-.47a63.4,63.4,0,0,1,7.06-.6,65.12,65.12,0,0,1,7.08.18C725.59,516.4,726.7,516.56,726.7,516.56Z" transform="translate(-548.69 -175.59)"/><path class="cls-2" d="M836.3,419.19a41.62,41.62,0,0,0-2.16,4.71L828.79,437l-17.67,43.17-25.08,61s11.19-27.34,25-61.06L828.74,437l5.38-13.08A43.73,43.73,0,0,1,836.3,419.19Z" transform="translate(-548.69 -175.59)"/><path class="cls-2" d="M836.26,419.28l.34-1.14a21.89,21.89,0,0,1,1.46-3.16c.92-1.23,2.78-2.06,5-2.48a34.48,34.48,0,0,1,7.71-.4c2.92.1,6.14.5,9.67.65l11.53.35L900,414l73.14,2.23,10.45.32,5.31.16,2.68.08,1.35,0c.23,0,.43,0,.69,0a2,2,0,0,0,.61.25,10,10,0,0,0,2.68-.05,3.23,3.23,0,0,1,2.54.86,4.6,4.6,0,0,1,1.33,2.38,5.26,5.26,0,0,1,.12,1.37,10.54,10.54,0,0,1-.08,1.38c-.52,3.68-2.22,7.07-3.9,10.4-.85,1.66-1.75,3.32-2.57,5s-1.58,3.44-2.37,5.17l-4.8,10.48q-4.83,10.55-9.79,21.4l-19.32,42.17-4.64,10.13c-.4.83-.72,1.69-1.18,2.48a23.12,23.12,0,0,0-1,2.55,6.86,6.86,0,0,1-3.63,3.9,16.54,16.54,0,0,1-5.32.7l-5.31.2-10.45.41-73.11,2.84-49.29,1.9c-1.46.07-2.83.1-4.12.17s-2.49.2-3.61.22a46.84,46.84,0,0,1-5.67-.22c-1.52-.15-2.68-.33-3.45-.47l-1.17-.22,1.17.22c.77.13,1.93.32,3.45.47a47.09,47.09,0,0,0,5.67.21c1.12,0,2.32-.09,3.61-.22s2.66-.11,4.12-.17l49.29-2,73.11-2.87,10.45-.41,5.31-.21a16.28,16.28,0,0,0,5.29-.69,6.75,6.75,0,0,0,3.57-3.84,24.08,24.08,0,0,1,1-2.56c.45-.79.78-1.66,1.18-2.48L958,517.61c6.23-13.62,12.69-27.73,19.31-42.18l9.8-21.4,4.8-10.47c.79-1.73,1.58-3.46,2.37-5.17s1.72-3.36,2.57-5c1.68-3.33,3.38-6.71,3.89-10.36a10.39,10.39,0,0,0,.08-1.37,5.11,5.11,0,0,0-.12-1.35,4.53,4.53,0,0,0-1.29-2.33,3.17,3.17,0,0,0-2.47-.84,9.85,9.85,0,0,1-2.71.06,2.53,2.53,0,0,1-.63-.26c-.19,0-.44,0-.65,0l-1.35,0-2.68-.08-5.32-.17-10.44-.32L900,414l-28.09-.87-11.53-.36c-3.54-.16-6.75-.56-9.67-.66a34,34,0,0,0-7.71.39c-2.18.42-4,1.24-4.95,2.47a21.11,21.11,0,0,0-1.47,3.16Z" transform="translate(-548.69 -175.59)"/><path class="cls-13" d="M795.38,517.34" transform="translate(-548.69 -175.59)"/><path class="cls-13" d="M784.92,509.27" transform="translate(-548.69 -175.59)"/><path class="cls-2" d="M783.88,491.45s-.84-4.68-1.82-10.47-1.71-10.48-1.71-10.48.84,4.68,1.82,10.47S783.88,491.45,783.88,491.45Z" transform="translate(-548.69 -175.59)"/><path class="cls-2" d="M789.51,531.9s-2.86-.85-7.52-2.13-11.11-3-18.29-4.64-13.71-3-18.45-3.9c-2.37-.47-4.3-.77-5.62-1.08a6.59,6.59,0,0,1-1.45-.54,4.25,4.25,0,0,1-.47-.28,3.59,3.59,0,0,0,.47.27,6.11,6.11,0,0,0,1.46.53c1.31.3,3.25.59,5.62,1,4.75.87,11.29,2.18,18.47,3.85s13.63,3.38,18.27,4.69S789.51,531.9,789.51,531.9Z" transform="translate(-548.69 -175.59)"/><path class="cls-2" d="M733.13,525.85a.44.44,0,0,0-.22.17.64.64,0,0,0,0,.73,1.55,1.55,0,0,0,1,.57,1.42,1.42,0,0,0,1.3-.31.91.91,0,0,0,.11-1.25,1.21,1.21,0,0,0-1-.36,2.31,2.31,0,0,0-1,.41,2.22,2.22,0,0,1,1-.46,1.26,1.26,0,0,1,1.12.35,1,1,0,0,1-.1,1.38,1.48,1.48,0,0,1-1.4.33,1.56,1.56,0,0,1-1-.63.7.7,0,0,1,0-.77A.44.44,0,0,1,733.13,525.85Z" transform="translate(-548.69 -175.59)"/><path class="cls-2" d="M738.42,526.39s4.88,1,12.75,2.67c3.93.86,8.61,1.9,13.79,3.13l8.12,1.95,4.28,1.06,1.09.28a3.46,3.46,0,0,1,1.09.38.91.91,0,0,1,.34,1.07,1.42,1.42,0,0,1-.77.86,3.7,3.7,0,0,1-2.28-.08l-2.19-.55-4.28-1.08-8.1-2-13.7-3.48-9.22-2.41-1.45-.38c-.41-.1-.79-.31-.84-.63a.5.5,0,0,1,.38-.49.26.26,0,0,1,.21.08.26.26,0,0,0-.21-.08.48.48,0,0,0-.37.49c.05.32.42.52.83.62l1.45.37,9.23,2.38L762.28,534l8.1,2,4.29,1.08,2.19.55a3.64,3.64,0,0,0,2.21.09,1.33,1.33,0,0,0,.71-.81.82.82,0,0,0-.3-.95,3.73,3.73,0,0,0-1.05-.36l-1.09-.27-4.29-1.07-8.11-2c-5.18-1.23-9.85-2.29-13.78-3.16C743.3,527.38,738.42,526.39,738.42,526.39Z" transform="translate(-548.69 -175.59)"/></g></svg>